<svg id="552bdaf0-9782-433d-b967-104f5a301a17" data-name="white" xmlns="http://www.w3.org/2000/svg" viewBox="0 0 1020 836"><title>desa_visesa_logo_white_version</title><path d="M294.34,599.68c3.25-4.92,6.47-10.33,9.58-16,2.82-5.13,5.18-9.93,7.07-14.25l-4.29-2.58c-11.48,24.87-20.56,36.45-28.53,36.45-5.34,0-8.78-2.6-9.95-7.52a40,40,0,0,1-.75-7.33l0-1.38.08,0V462.6H220.79V466h22.95V589.16c0,13.91,5.06,19.42,8.85,22.35,4.15,3.21,7.69,5.07,13.44,5.07a29.24,29.24,0,0,0,16-4.86A41.83,41.83,0,0,0,294.34,599.68Z" style="fill:#fff"/><path d="M734.86,523.34c-13.84-6.3-23-11.82-28-16.86a24.38,24.38,0,0,1-7.84-18.1,23.43,23.43,0,0,1,7.13-16.82c4.74-4.82,11-7.23,18.67-7.23a18.78,18.78,0,0,1,3.66.33l.65.11c9.79,2.18,14.72,9.2,14.72,20.89,0,4.53.71,8.13,2.16,10.66,1.24,2.26,4.4,3.39,9.39,3.39a11,11,0,0,0,8.21-3.31c2.22-2.18,3.29-5.38,3.29-9.78,0-7.81-3.85-14.12-11.82-19.23s-17.89-7.67-30.84-7.79c-8.76,0-21.08,4-27.86,12.72-6.66,8.53-10,17.62-10,27,0,9.8,3.1,18.14,9.2,24.8,6.35,7,16.93,14.16,31.49,21.41,14.21,7.08,24,13.22,29,18.31,5.11,5.28,7.67,12.09,7.67,20.28a30.26,30.26,0,0,1-7.09,19.42c-4.6,5.7-11.55,8.69-20.69,8.92-16.6-.06-25-8.82-25-26,0-6.52-.9-11.12-2.67-13.66-1.65-2.35-5-3.54-9.78-3.54-4.13,0-7.12,1.28-9.24,3.94A15.94,15.94,0,0,0,686,583.25c0,10.37,4.95,18.35,15.1,24.36a64.68,64.68,0,0,0,28,8.86c1.57.17,3.16.27,4.81.31l.6,0,.8,0a45.68,45.68,0,0,0,4.86-.25,46.91,46.91,0,0,0,4.65-.65l.5-.1a41.32,41.32,0,0,0,20.59-10.68c8.06-7.75,12.13-18,12.13-30.36,0-7.94-2.2-16.34-6.62-25C767,541.37,754.75,532.47,734.86,523.34Z" style="fill:#fff"/><path d="M409,612.41c-16.57-.06-25-8.82-25-26,0-6.52-.92-11.12-2.7-13.66-1.63-2.35-4.92-3.54-9.78-3.54-4.08,0-7.11,1.28-9.21,3.94a15.82,15.82,0,0,0-3.25,10.14c0,10.37,4.93,18.35,15.07,24.36a64.87,64.87,0,0,0,28,8.86c1.57.17,3.15.27,4.8.31l.57,0,0,0,.75,0a46.78,46.78,0,0,0,4.91-.25c1.65-.15,3.16-.38,4.63-.65l.55-.1A41.33,41.33,0,0,0,439,605.17c8-7.75,12.13-18,12.13-30.36,0-7.9-2.22-16.32-6.64-25-4.34-8.42-16.63-17.32-36.49-26.46-13.85-6.29-23-11.82-28-16.86a24.31,24.31,0,0,1-7.85-18.1,23.38,23.38,0,0,1,7.12-16.82c4.73-4.82,11-7.23,18.64-7.23a19.09,19.09,0,0,1,3.71.33l.62.11c9.81,2.18,14.72,9.2,14.72,20.89,0,4.5.72,8.11,2.16,10.66,1.22,2.26,4.4,3.39,9.37,3.39a11.13,11.13,0,0,0,8.25-3.31c2.16-2.16,3.27-5.47,3.27-9.78,0-7.81-3.88-14.12-11.84-19.23s-17.85-7.67-30.82-7.79c-8.78,0-21.05,4-27.86,12.72-6.66,8.53-10,17.6-10,27,0,9.8,3.1,18.14,9.22,24.8,6.31,7,16.89,14.16,31.45,21.41,14.22,7.06,24,13.2,29,18.31,5.1,5.28,7.69,12.11,7.69,20.28a30.27,30.27,0,0,1-7.12,19.42C425.09,609.19,418.13,612.18,409,612.41Z" style="fill:#fff"/><path d="M571,616.08l.74,0,1,0c.31,0,.68,0,1,0,7.9,0,15.58-2.05,19.11-4.11a46.32,46.32,0,0,0,16.49-11.31c9.39-10,16.11-22.48,20-37.12L625,562.35c-10.44,30.59-26.17,46.09-46.8,46.09a42.86,42.86,0,0,1-11-1.49l-.8-.27-2.12-.88c-.29-.17-.59-.34-.85-.5l-.55-.29c-7-3.48-12.89-9.11-17.57-16.76-7.13-11.69-11.29-26.19-12.3-43.11l-.07-1.28,1.18-.44c5-1.91,8.76-3.27,11-4s7-2.66,13.76-5.55,12.07-5.3,15.9-7.35,8.38-4.84,13.77-8.44a54.44,54.44,0,0,0,11.9-10,39.8,39.8,0,0,0,6.29-11,20,20,0,0,0,.89-12A27.83,27.83,0,0,0,594,466.56a46.86,46.86,0,0,0-20.17-6l-3.16-.19a4.36,4.36,0,0,0-.75-.06l-.59.06c-1,0-2.1.11-3.14.19s-2.26.25-3.39.46c-.56.09-1.13.21-1.73.34a44.29,44.29,0,0,0-4.79,1.28l-1.19.36c-1.36.46-2.72,1-4.08,1.63a65.92,65.92,0,0,0-20.41,13.55l-.82.88c-1.34,1.38-2.51,2.56-3.58,3.86-12.56,15.21-18.94,33.79-18.94,55.2,0,22.5,5.88,41.35,17.45,56.06a55.32,55.32,0,0,0,13.58,12.42c8.5,6.37,19.13,9.55,31.63,9.55A9.29,9.29,0,0,0,571,616.08ZM533,535.72c0-22.83,5-38.8,10.37-52.67,4.73-12.26,12.43-18.46,22.91-18.46a18.55,18.55,0,0,1,12.9,4.92A24.07,24.07,0,0,1,586.29,482c5.26,22.14-11.9,40.77-51,55.33l-2.33.86Z" style="fill:#fff"/><path d="M999,566.47c-11.46,24.87-20.53,36.45-28.5,36.45-5.35,0-8.81-2.6-10-7.52a44.3,44.3,0,0,1-.75-7.31l0-1.38.09,0V462.23H936.07v26.25l-3.29-6.54a44,44,0,0,0-10.18-13.51,31.7,31.7,0,0,0-21.54-8.07c-14.14,0-27.17,5.66-38.74,16.86S842.55,503,838.19,520.09a90.1,90.1,0,0,0,1.11,50.22c5,15.88,12.53,27.63,22.31,34.92s19.86,11,30,11c19.46,0,33-9,41.21-27.51l3.24-7.25.08,7.92c.12,10.18,3,17.31,8.82,21.79,4.15,3.18,7.68,5,13.45,5a29.29,29.29,0,0,0,16-4.84,41.94,41.94,0,0,0,12.3-12c3.22-4.88,6.45-10.27,9.59-16,2.84-5.2,5.22-10,7.07-14.27Zm-63-28.18c0,40.66-5.59,47.91-11,55l-1.17,1.55c-6.76,9.09-15.27,13.72-25.34,13.72A26.53,26.53,0,0,1,881,602.07a34.72,34.72,0,0,1-10.78-16.47c-2.6-8.19-4.15-18.92-4.6-31.93a251.48,251.48,0,0,1,1.73-39.47c1.63-13.41,5.62-25.1,11.84-34.69,6.47-9.85,14.73-14.87,24.61-14.87,15.55,0,32.25,15.92,32.25,50.87Z" style="fill:#fff"/><path d="M170.79,495a64.59,64.59,0,0,0-11.24-24.45c-5.09-6.64-11.55-9.87-19.71-9.87-4.12,0-7.37,1-9.7,3-2.16,1.82-2.72,4.71-1.75,8.8a19.85,19.85,0,0,0,6.6,11,33.36,33.36,0,0,0,10.4,6c3.94,1.32,8,4.06,12,8.17s6.88,9.76,8.55,16.61c5,21.07-3.46,43.2-16.6,63.69-12,18.58-26.49,30.84-42.83,30.84a19.08,19.08,0,0,1-13.11-5.09c-6.27-5.65-9.45-15-9.45-27.82V490c0-13.93-5-19.4-8.83-22.33-4.17-3.23-7.68-5-13.46-5a29.11,29.11,0,0,0-16,4.82,42.08,42.08,0,0,0-12.31,12c-3.19,4.86-6.44,10.24-9.6,16-2.82,5.17-5.2,10-7,14.27L21,512.3c11.46-24.85,20.54-36.45,28.51-36.45,5.37,0,8.81,2.62,10,7.54a39.29,39.29,0,0,1,.73,7.29l.06,1.09-.09.06c0,9,.05,72.11.05,84.43,0,18.6,7.48,26,14.5,31.53a41.43,41.43,0,0,0,26.38,8.8c27.31,0,48-28.45,54.61-38.54,22.58-34.44,17.93-61.57,17.93-61.57A114.66,114.66,0,0,0,170.79,495Z" style="fill:#fff"/><path d="M353.8,778.77c0,6.06-1.54,10.79-4.58,14.06a16.85,16.85,0,0,1-23.69.06c-3-3.25-4.57-7.82-4.57-13.58V750.79h-5v28.68c0,7.06,2,12.72,6,16.82s9.15,6.16,15.42,6.16,11.5-2.09,15.47-6.24,6-10.08,6-17.64V750.79h-5Z" style="fill:#fff"/><path d="M394.38,775.13c4.15-2.64,6.24-6.29,6.24-10.87a12.13,12.13,0,0,0-4.42-9.91c-2.91-2.35-7.18-3.56-12.75-3.56h-11v51h15.19c5.26,0,9.49-1.23,12.59-3.71A12.31,12.31,0,0,0,405,788C405,781.37,401.41,777.06,394.38,775.13Zm-12.26-20c8.88,0,13.19,3.08,13.19,9.41s-4.26,9.34-13,9.34H377.5V755.14Zm-4.62,23.15h8.05c9.51,0,14.14,3.14,14.14,9.64a8.57,8.57,0,0,1-3.1,6.91c-2.12,1.74-5.27,2.6-9.37,2.6H377.5Z" style="fill:#fff"/><path d="M452.23,778.77c0,6.06-1.55,10.79-4.6,14.06a16.82,16.82,0,0,1-23.67.06c-3-3.23-4.59-7.79-4.59-13.58V750.79h-5v28.68c0,7.06,2,12.72,6,16.82s9.16,6.16,15.43,6.16,11.51-2.09,15.48-6.24,6-10.08,6-17.64V750.79h-5Z" style="fill:#fff"/><path d="M488.88,750.79h-18v51h18.69c8.6,0,15.33-2.43,20-7.21s7.06-10.94,7.06-18.27-2.39-13.66-7.13-18.39S497.82,750.79,488.88,750.79Zm22.43,25.54c0,6.35-2.11,11.5-6.25,15.33a22.29,22.29,0,0,1-15.71,5.79H475.86v-42.3h13.25c6.52,0,11.92,2,16,5.91A20.33,20.33,0,0,1,511.3,776.33Z" style="fill:#fff"/><path d="M542.06,770.12a5.67,5.67,0,0,0-4.14,1.74,5.56,5.56,0,0,0-1.74,4.15,5.63,5.63,0,0,0,1.74,4.15,5.87,5.87,0,1,0,4.14-10Z" style="fill:#fff"/><path d="M587.86,775.13c4.15-2.64,6.24-6.29,6.24-10.87a12.13,12.13,0,0,0-4.42-9.91c-2.9-2.35-7.21-3.56-12.76-3.56H566v51h15.17c5.26,0,9.49-1.23,12.57-3.71a12.24,12.24,0,0,0,4.74-10.1C598.46,781.37,594.88,777.06,587.86,775.13Zm-12.25-20c8.87,0,13.17,3.08,13.17,9.41s-4.25,9.34-13,9.34H571V755.14ZM571,778.29H579c9.5,0,14.14,3.14,14.14,9.64a8.58,8.58,0,0,1-3.12,6.91c-2.11,1.74-5.25,2.6-9.34,2.6H571Z" style="fill:#fff"/><path d="M629.06,750.45h-2.84L603,801l-.39.8h5.31l7.87-17.22h23.65l7.73,16.89.15.33h5.31l-23.44-51Zm8.41,29.75H617.78l9.85-21.54Z" style="fill:#fff"/><polygon points="665.93 750.79 660.94 750.79 660.94 801.8 690.59 801.8 690.59 797.44 665.93 797.44 665.93 750.79" style="fill:#fff"/><rect x="699.05" y="750.79" width="5" height="51.01" style="fill:#fff"/><path d="M553,334.74a49.41,49.41,0,0,1-25.12-1.32l.7.75c.22.11.43.19.64.27,10.81,4,22.54,4.92,33-.61a44.28,44.28,0,0,0,19.23-20.59c-1.13.3-2.24.55-3.35.84-.31.61-.64,1.2-1,1.78C571.59,324.86,563.61,332.4,553,334.74Z" style="fill:#fff"/><path d="M648.81,290.16c4.86,3.35,8.44,17.14-1.22,20a7.7,7.7,0,0,1-7.89-2.16c-1.74-2.14-2.08-6.39.73-8.23,1.74-1.15,4.51-.65,5.5.82.67,1.13-1.49,5.07-2.44,2.77-.26-.63-1-.25-.57.44,1.57,2.28,4.3-1.32,3.94-2.74a3.56,3.56,0,0,0-3.06-2.64,5.57,5.57,0,0,0-5.4,2.6,5.36,5.36,0,0,0-.41.86c-.33-3.18-4.11-7.14-7.26-7.48-2.7-.29-5.21,1-7.63,2.39,2.91-.06,6,.84,8.74,1.15a0,0,0,0,1,0,.08c-4.17.08-8.32-.5-12.19,1.26l-.14.06c2.88.17,5.39,1.36,8.26,2.18a12,12,0,0,0,5.58,0c1.4-.25,3.69-1,4.59.46a7.45,7.45,0,0,0,.77,6c4.79,7,13,2.2,15.25-1.86,4.59-8.4-2.21-16.7-7.73-18.87a19.44,19.44,0,0,0-12.65-.25c-1.68,1.32-3.35,2.6-5,3.81C634,287.82,642.14,285.53,648.81,290.16Z" style="fill:#fff"/><path d="M584,327.75s0,.06.06,0A252.17,252.17,0,0,1,604.56,309c4.38-3.65,8.73-7.6,13.66-11.37-3.1,1.88-6.23,3.6-9.34,5.17C599.85,310.4,592.22,319.33,584,327.75Z" style="fill:#fff"/><path d="M565.78,321.52c.5,2-.17,5.11-2.06,6.05.48-1,1.54-1.95.38-2.89.45,1.07-1.07,1.42-1.77,2-1,.8-1.49,1.32-1.45,2.51a4.85,4.85,0,0,0-.4-.5c-1.26.63-1.88,1.89-3,2.72a20.58,20.58,0,0,1-3,1.72,34.05,34.05,0,0,1-3.16,1.51,1.52,1.52,0,0,1-.45.13c.05,0,.05.08.07.11a58.75,58.75,0,0,0,6-1.8,31.71,31.71,0,0,0,9.44-5.43,28.48,28.48,0,0,0,9.25-12.93c-.52.13-1.07.23-1.59.34-.67,2.7-1.8,5.63-3.45,7,1-1.66,2.37-3.81,1.71-5.68-.39.21-.44.06-.61.38a3.46,3.46,0,0,0,.26-1.19q-3.11.63-6.13,1.13s0,.06,0,.08c-.15-.06-.23,0-.36,0l-.38.06C564.16,317.31,565.63,320.83,565.78,321.52Z" style="fill:#fff"/><path d="M644.24,316.29c-1.38.78-3.14,2.35-4.92,3.14l1.47.17c3.94.31,7.79-.44,11.59.92,0,0,0,.1,0,.08-3.82-.71-7.49.52-11.24.88a42.58,42.58,0,0,0,6,.9c.06,0,.05.06,0,.06a39.87,39.87,0,0,1-7.24,0c2.22.82,4.23,1.68,6.46,2.75a19.28,19.28,0,0,0,8,1.68c1.91,0,5.36.13,6,2.51,0-.38,0-.73,0-1.11.07-5.19-2.4-11.79-7.83-13.16A10.91,10.91,0,0,0,644.24,316.29Z" style="fill:#fff"/><path d="M616.64,304.81c-4.65.9-9.07,4.94-12.53,8-4.12,3.6-8.43,6.72-12.69,10.1,2.45-1.19,4.9-2.45,7.31-3.77,7.35-4,14.37-7.48,22.94-7.56,0,0,0,.08,0,.08-8.14.38-15.34,5.09-22.11,9.34a44.66,44.66,0,0,1,8.49-2.83.06.06,0,0,1,0,.11c-5.72,1.86-10.33,5.57-15.61,8.34.71-.21,1.36-.42,1.94-.61a89.47,89.47,0,0,1,16.32-3.64,45.09,45.09,0,0,0,16.18-4.88c4.09-2.05,9.2-4.61,13.68-2.7C633.68,310,625.69,303.07,616.64,304.81Z" style="fill:#fff"/><path d="M641.71,284.78c2.18.19,4.27.69,6.45-.06,1.82-.63,3.88-2.33,5.82-1-1.3-3.58-4.06-7.33-7.71-7.88,0,0,0,0-.06.06l-2.31,2.24c-1.59,1.49-3.15,2.91-4.73,4.29,1.85-.63,3.71-1.21,5.57-1.89,0,0,.08,0,0,0-2.89,1.43-5.79,2.85-8.62,4.38l-.16.13A22.88,22.88,0,0,1,641.71,284.78Z" style="fill:#fff"/><path d="M611.6,344.28a23.67,23.67,0,0,0-8.19-2.37c-2.66-.38-5.89,0-8.42-.86l-1.85,0c.13,0,.22.1.37.17l1.82.46c3.88.8,7.75,1.72,11.63,2.66,0,0,0,.06,0,.06-2.69-.59-5.41-.9-8.15-1.26,4.27,1.47,8.52,2.77,11.9,6,0,0,0,.1-.08.06-3.74-2.55-8.32-3.46-12.74-4.44a32.56,32.56,0,0,1,6.1,3.94c4.74,4,11.33,2.62,16.38,5.74-.29-1.53-2.12-3.41-3.12-4.69C615.5,347.59,614,345.62,611.6,344.28Z" style="fill:#fff"/><path d="M651,367.45s0,0,0,0v-.06C650.94,367.3,650.94,367.3,651,367.45Z" style="fill:#fff"/><path d="M541.47,322.91c-.16-.36-.58-.73-.69-1.07-4.75,2.75-3.59,10.27-11.06,9,1.32,0,2.71.08,3.32-1.32-2.6-1.66-5.74-.42-8.85-.29.44.52.89,1,1.34,1.55,8.8,3.81,19,5.07,27.56-.23,4.21-2.6,7.59-7.92,8.74-13.39-2,.27-3.94.52-5.83.71.24.67.43,1.15.47,1.32.29,3-3.9,10.87-7.83,8.17,2-.48,4.06-1.61,4.13-3.92-.44-.11-.83-.48-1.36-.5,1.34-1.28,1-3.1-.12-4.67-1.9.13-3.77.23-5.59.31C543.58,320.06,540.76,321.67,541.47,322.91Zm2.65,3.52a12,12,0,0,0-1,1.51c-.35.59-.35,1.09-.89,1.51a.3.3,0,0,1-.48-.15c-.27-1.3,1.08-2.77,2.26-3C544.12,326.22,544.21,326.36,544.12,326.43ZM547,321.5a12.38,12.38,0,0,0-4.38,3.67,17.09,17.09,0,0,1-2.79,3.44.24.24,0,0,1-.4-.25c1-3.48,4.2-5.87,7.48-7C547,321.34,547.08,321.44,547,321.5Z" style="fill:#fff"/><path d="M529,318.68c-1.09-.73-.21,3.16-.27,3.65-.1,1.3-1.76,3.44-3.24,2.91.83,0,2-.78,1.75-1.7a.88.88,0,0,1-.21.08,2,2,0,0,0,.23-2.6c.1,1.53-.88.59-1.56.65s-1.18.77-1.46,1.36a3.77,3.77,0,0,1,0-.48c-.87-.36-1.31,1.11-2,1.42-.85.38-1.94.06-1.88-1l-.41.27a2.16,2.16,0,0,0,.23,1.17c.25.31.48.61.73.94a5.81,5.81,0,0,0,3.4,1.24,8.2,8.2,0,0,0,6-2.51,9.46,9.46,0,0,0,2.42-5.51c-.65,0-1.28,0-1.93-.08.46,1.28.58,2.66-.69,3.46-.19.08-.36-.13-.31-.31a19.48,19.48,0,0,0,.42-2.22,4,4,0,0,0-.05-.94c-.52,0-1-.08-1.53-.11A.76.76,0,0,0,529,318.68Zm-5.63,6.26a.15.15,0,0,1-.06-.29,4.84,4.84,0,0,0,2.15-1.11c.07-.06.19,0,.16.13A2.8,2.8,0,0,1,523.37,324.94Z" style="fill:#fff"/><path d="M727.18,308.12a19.86,19.86,0,0,0-7-2.28c-2.39-.27-4.4.44-6.66,1.13-1.36.42-3.56.9-4.53,1.87,5.11.21,9.18,4.38,14.47,3.88a27.33,27.33,0,0,1,6.29.15c-3.64-1.45-7.35-3-11.27-3a0,0,0,0,1,0-.06c4-.67,7.63.48,11.38,1.51-2.12-1.09-4.23-2.16-6.41-3.08,0,0,0,0,0,0,3.2,1.22,6.4,2.45,9.58,3.75.48.21,1,.4,1.52.57a2,2,0,0,1,.34.08l-1.31-.92C731.37,311,729.25,309.14,727.18,308.12Z" style="fill:#fff"/><path d="M680.75,303.15h.06c.11-.1.11-.1,0,0S680.8,303.15,680.75,303.15Z" style="fill:#fff"/><path d="M761.45,321.88c-.1-.12-31.4-54.38-98.78-64.32-.72.92-1.51,1.84-2.26,2.77,58.05,7.75,89.29,49.32,96.68,60.4l1.24,1.95c-.25.42-.61,1-1.1,1.74-.05.11-.14.21-.19.31-11.67-12-21-26.82-34-37.23-13.65-11-36.5-17.83-52.51-8.11a29.36,29.36,0,0,0-12.27,15.71c-2.91,8.21.49,17.35,6.2,23.46,5.54,6,13.12,8.3,20.83,5.36,6.65-2.53,11.71-9.59,8-16.47a.49.49,0,0,0-.92.29c.61,6.24-2.7,11-8.53,13.13s-11.48-.19-15.6-4.48A22.9,22.9,0,0,1,662,299.57c.36-5,3.4-10.22,6.89-13.74,13.88-13.93,39-6.49,52.73,3.69a109,109,0,0,1,16.2,15.36c-6.59-6.33-12.7-12.76-21.32-16.38-8.19-3.39-17.83-6.85-26.69-5.22-9.77,1.78-19,6.6-22,16.72-2.43,8.3,3,18.18,12.65,17.35,2.18-.21,4.17-1.86,5.61-3.42-5.5,5-7.23-5.07-11.42-5.47.06,0,.82-.5,1.19-.65-1.19-2.18-4-2.85-5.15-5.36s-.38-4.84.31-7.35c-.21,1.47-1.23,3.29.06,4.48.39-.54.69-.4.9-1.19.7,3,5.75,6.93,8.78,4.78-4.09.88-1.24-3.67-1.48-5.55,1.27,1.32,2.48-2.79,3-3.83a20.15,20.15,0,0,1,3.7-5c3.28-3,8.2-5.45,12.66-4.5-1.75.15-3.85,0-5.36.77a5,5,0,0,0,2,1c-9.69.25-8.69,18.12-.7,15.08-1.11-1.09-3-.36-4.05-1.72a3.08,3.08,0,0,1,.62-4.25c3-2.53,7.54,1.49,10.24-.67-1.68,1.7,3.44,1.28,4.48,1,2.12-.59,4.21-1.36,6.29-1.86,3.79-1,9.75-1.51,12.61,1.82-1.61-1.55-3-1.72-5.15-1.24.45.75-.28.69.85,1.11a5.47,5.47,0,0,0-4.59,1.61c1.89-.48,1.48.94,2.82,1.36s2.56,0,3.84-.1c-.14.21-.33.5-.47.71,2.24,1.82,7.08,2.24,9.8,3.42,2.88,1.24,5.53,2.54,7.69,5.11l-.71-1.34c3.39,3.85,6.72,7.77,10.16,11.56,2.45,2.7,5,5.24,7.56,7.65-.16.25-.31.5-.5.78-5.3-5.07-10.48-10.31-16.36-14.66-8.68-6.45-22.37-13.83-34.94-7.92a12.5,12.5,0,0,0-7.45,11.19c-.12.21-.22.42-.35.61-.42.71-3.87,3.42-2.66,3.73a4.63,4.63,0,0,0-1.55,1.32c-.33.52.13,1.4-.9,1.24a2.25,2.25,0,0,0,1.72.88c-1.13.65.46.84,1.15.46s.84-1.19,1.51-1.67c0,2-3.48,3.16-2.87,5,.19,0,.44.13.65.08-.31.13-.75.92-1.09,1.36.78.82,0,1.38-.82,1.47a5.18,5.18,0,0,0,3.24.8c.91-.1,2-1.13,2.73-.9-.09,1.84-3.58,1.21-4.59.94a5.52,5.52,0,0,0-2.64-.38c-.72.19-1.59,1.13-.29,1.3-1.38-.31-2.16,1.3-3.31.34a2.86,2.86,0,0,0,2.51,2.76,7.34,7.34,0,0,1-.74.36c.78,1.15,2.54.23,3.57.38-1.59,2.93-5.69-1-6.33-2.81-1.1-3-3.55-4-6.43-2.26,1.68.31,2.28,1.47,2.9,2.93a7,7,0,0,0,4.49,3.83c5.93,1.76,11.94-2.58,12.75-8.69a14.87,14.87,0,0,0-.49-5.63,13.08,13.08,0,0,0,3.54,3.62A18.17,18.17,0,0,0,705.5,329s0,.1,0,.06a19.16,19.16,0,0,1-4.57-4.36c-.08,3,1.49,6.94,4.23,8.25s6.86.71,8.76-1.93c-2.73,1.93-3.83-1.49-5.22-3.58a11.44,11.44,0,0,0,2.18-.21,9.52,9.52,0,0,0,3.86-1.93,10.77,10.77,0,0,0,2.43,6.89c2.43,3,9.17,4.9,11.1.27-1,1.84-3.79,1.72-5.09.17s-.26-4.29-2.55-5.36c2.41.67,1.37-3.87,2.05-5.36.89-2.05,3.18-3.56,5.23-4.25a12.94,12.94,0,0,1,12.43,2.62c-1.94-.59-3.7-1.74-5.87-1.09a13.87,13.87,0,0,0,1.21,1.13c-6.32-1.72-8.64,6.3-6.26,11a2.13,2.13,0,0,1,1.53-1.66c1.32-.42,3,.5,4.57-.52-2.2,1.84,1.91,1.8,3.1,1.15,1.59-.84,2.59-2.58,4.08-3.41,3-1.78,9-1.63,11,1.66-2.82-.42-4.88-3-7.75-.21-1.95,1.86-2.85,7.39,1.22,6.74-.46-1.3-2.31-.88-2-2.79a2.21,2.21,0,0,1,2.7-1.57c1.27.36,1.94,1.66,2.77,2.6a123,123,0,0,1-19.37,18.35c-12.8,9.74-30.52,19.42-54.09,24.87.27-.67.48-1.36.69-2.08a34.38,34.38,0,0,0-1.49-23.06,36.44,36.44,0,0,0-5.61-8.59c7.08,6.56,12.8,15.21,21.91,19,10.33,4.27,23.3,3,29-7.5,4.19-7.69,1.47-18.94-8.48-20-5.46-.57-14.41,7.35-8.13,12,2.66,2,7.23.46,7.36-3.27.12-3-3.93-5.4-6-3.35a6.31,6.31,0,0,1,11.36,1.07c2.19,5.59-6.15,8.17-3.79,12.88-1.35-3.06-7.47,5.41-9.55,6.37-3.71,1.7-8.82,2.2-11.84-.78,2.07-.25,5.6,3.14,7.06.13-.78-.38-.87-1.07-1.17-1.34,4.19.06,5.82-3.37,7.21-6.64-1.45,2.43-5.11-3.14-7.41-2.89.81-5.66-8-1.36-9.77-.52-2.41,1.09-9.25,3.6-9.72-.88,1.92,1.26,2.78,2.56,5.27,1.19-.49-.15-1.07-.52-1.56-.65,1.38-.65,3.1-.29,4.53-1.66-3.8.63-2.59-3-5.76-3.9a6.4,6.4,0,0,0,.43-.5c-2.5-3.14-6.47.23-9.42-1.47.52-.44.63-1.11,1.38-1.47a89.89,89.89,0,0,0-15.94-7.39A62.69,62.69,0,0,0,646.88,328a70.48,70.48,0,0,0-26.08-3.16c-18.69,1.47-36.85,9.24-55.29,13.18,2.14-1,4.21-2,6.14-3.12,8.58-5,16.78-11.4,22.55-19.53l.05-.08-1.09,2a51.59,51.59,0,0,0,8.51-9.36c.57-.84,1.11-1.7,1.68-2.56-1.36.61-2.7,1.19-4.07,1.76l-.57.94c.17-.29.33-.59.47-.9-1.24.5-2.44,1-3.65,1.42a65.86,65.86,0,0,1-25.78,24.93,52.23,52.23,0,0,1-20.06,6.66c-1.76.08-3.5.13-5.27.08A37.35,37.35,0,0,1,533,337c-.92-.4-2-.88-3.16-1.47.75.8,1.56,1.59,2.36,2.41a145.66,145.66,0,0,1-17.21-20c-.35-.48-.63-.88-.87-1.24-2.05-.36-3.17-.63-3.17-.63l-.86-.21-.06.1.51.88c.09.15,40.22,65.26,120.81,67.23,1.07,0,2.16.06,3.23.06,93.43.82,126.77-60.48,126.85-60.71l.41-.75Zm-83.67-26.94c0,.06-.15,0-.12-.06.36-1.95,1.23-4,3.1-4.84a.24.24,0,0,1,.31.33C680.15,292,678.58,293.18,677.78,294.94Zm31.95-4.46c-1.84.65-3.72.31-5.59,0-3-.54-5.5-1.09-8.47-.42-.08,0-.14-.08-.05-.12,4.23-2,9.82-1.74,14.14,0A.29.29,0,0,1,709.73,290.48Zm-22.3,60.34c2.07-.36,4.43.23,6.51.44a.16.16,0,0,1,0,.31c-2.05.1-4.59.59-6.49-.34C687.21,351.17,687.19,350.83,687.43,350.81Zm-2.5,1.86a20.27,20.27,0,0,1,5.11.65,18.88,18.88,0,0,0,6.41.31c.07,0,.08.06,0,.08-3.79,1.24-8.24,1.76-11.73-.52A.28.28,0,0,1,684.92,352.68ZM547.2,340.38l-.77,0c-.66,0-1.32,0-2-.08C545.38,340.36,546.28,340.36,547.2,340.38Zm-13.7-1.24a.31.31,0,0,1,.13,0l-.08,0S533.52,339.14,533.5,339.14Zm83,39.26a11.08,11.08,0,0,0-.6,1.34c-1.09-.15-2.22-.27-3.32-.46a12.35,12.35,0,0,0,5.06-4.32,21.84,21.84,0,0,1-7.2,1.19c-.05,0-.05-.06,0-.08a21.19,21.19,0,0,0,4.59-1.59,15,15,0,0,0,5.66-1.17A17.46,17.46,0,0,0,616.53,378.4Zm-.09-5.13c-2.19-.31-4.47-1.22-6.22-1.22h-.08a10.43,10.43,0,0,1-5.28-6.1c-.06-.15-.07-.31-.12-.46a13.7,13.7,0,0,0,1.66-5.61,10.75,10.75,0,0,0,0-2,7.84,7.84,0,0,1,1.45-1.38c2.3-1.61,6-1.86,8.21.5a5,5,0,0,1,1.11,4.92c-.65,1.72-3,2.87-4.25,1.89-.71-.57-1.45-2.6-1.42-1.15s2.14,2.54,3.88,1.84,2.83-3.18,2.45-5.15c-.78-4.06-5.88-5.53-8.74-4.5a8.25,8.25,0,0,0-2.87,1.63c-1.68-9-13.12-13.76-21.26-14.92a92.43,92.43,0,0,0-15.63-.82c-6.08.19-12.25,1.86-18.48,1.89l-2.75-.08c1.71,1.53,4.54,5.26,7.26,4,.45,2.58,6.29,6,5.51,2.2,2.05,4.57,5.15.23,8.05,1.26a2.58,2.58,0,0,1,1.56,3.29c-1,2-2.45.4-3.75,1.32,3.48,3.29,6.21-2.6,5.56-5.68-.93-4.46-4.58-3.39-7.55-4.84,4-1.84,9.85,1.91,11.63,5.59.88,1.78.67,4.09,1.65,6,.73,1.4,4.61,4.1,3.71.92.84,2,3,2.22,4,3.46a2.43,2.43,0,0,1,.38,2.6c5.36-2.93,8.38-12.13,1.19-14.6a14.28,14.28,0,0,0,1.92-.29c-1.65-2-4.1-2.12-6.35-2.79a15,15,0,0,1,13.61,5.61c1.52,2,2.71,4.92,2.24,7.48-.32,1.86-4.3,5.53-1.57,6.49-2.89-.48-3.65,2.79-5.94,3.44s-4.94-1-4.74-3.5c-1.17,5.7,6.52,8.32,10.79,7a12.45,12.45,0,0,0,6.83-5,11.62,11.62,0,0,0,2.45,4.38,13.4,13.4,0,0,0,1.93,1.59c-2.68,1.09-5.95,3.64-7.33,0a7.37,7.37,0,0,0,2.39,5c-31.57-7.12-54.91-23.92-69.93-38.32l.15,0a52.65,52.65,0,0,0,7.43,2.47,32,32,0,0,0,13.88-.17c8.4-.75,16.72-1.89,25.14-2.47a109.36,109.36,0,0,1,18,.08c6.43.59,14,1.24,20.93,6.12,4.91,3.48,8.83,8.13,9,14.81C628.09,364,624.32,372.68,616.44,373.27Zm-15.73-10.83s-.11,0-.06,0a15.88,15.88,0,0,0,.86-3.39,12.49,12.49,0,0,1,.37-2.87.3.3,0,0,1,.53,0C603.47,358.21,601.87,360.76,600.71,362.44ZM583,353.33a0,0,0,1,1-.06,0c-1-3-4.11-4.63-6.66-6.22-.38-.23-.12-.73.27-.73C580.34,346.25,583.16,349.7,583,353.33Zm-19.17-6.79a10.19,10.19,0,0,0-2.87-.69c-1-.08-1.88,0-2.84-.13-.26,0-.41-.42-.12-.52,1.93-.84,4.24.13,5.92,1.17C564,346.41,564,346.56,563.86,346.54Zm89.54,30c-4.29-2.35-12.53,6.18-14.52-2.24.37,2.3,1.15,5,2.92,6.66-2,0-4.12.06-6.23.06-3.25-5.51-3-11.58,1.3-16.76a.57.57,0,0,0-.7-.88c-6.74,3.52-7.64,11.19-4.93,17.58-2.34,0-4.61-.17-6.88-.34.66-1.59-1.06-4.36,0-6,.31.9-.1,1.68.36,2.6s2.06,1.66,1.38.29a2.52,2.52,0,0,0,2.22.27c-1.07-.52-.07-1,0-1.76a5.58,5.58,0,0,0-.62-2.28c1.38.5-.17-4.36-.12-5.28a6.41,6.41,0,0,1,.08-.75,14.51,14.51,0,0,0,.17-15.67c-8.17-13.83-26.08-15.73-38.58-15.23-11.22.42-22.25,3.14-33.36,4.53a48.87,48.87,0,0,0,6.39-2,135.15,135.15,0,0,0,14-2.66c5.72-1.38,11.46-3,17.22-4.4l-1.51.8c3.77-1.09,7.1-.59,10.66.13,3.37.67,8.28,3.44,11.6,3.14,0-.29,0-.67,0-1,1.16,1,2.07,2.14,3.62,2.62s2.08-1.15,3.58.54c-.37-1.74-1.55-3.83-3.33-4.55,1.33.34.59-.06,1.51-.52-1.7-1.84-3.14-2.6-5.72-2.16,4.9-1.34,10.25,3.08,13.26,6.45,1.66,1.91,3.13,4,4.8,6,.8.92,5.43,4.67,4.92,1.95,1.17,3.83,8.11,2.91,9.32,7.33a3.58,3.58,0,0,1-2.16,4.5c-1.91.59-3.21-1.34-5-1,5.65,8.13,18.24-8.3,9.16-14.85a6,6,0,0,0,2.54.31c-.9-1.74-3-3-4.61-4.25,4.9,2,8,7.63,9.18,12.59a22.45,22.45,0,0,1,.25,7.21c-.12,1.36-1.66,6.08.42,5.68-1.45,1.66-1.64,7.86-5,4.34,1.51,4,8.86,3.62,11.51,1.17-.3.9.07.94.09,1.72,2-.29,2.23-2.7,3-4.25-1,2.87-1.65,5.57-4.5,7.25s-5.87.46-8.42,1.74C652.92,375.53,653.33,376.5,653.39,376.54ZM632,335.9c5.24,1.15,10.76,4.57,13.49,9.26.05.06-.08.13-.15.08-2.4-2.62-5.2-3.73-8.35-5.15-2-.9-4-1.82-5.37-3.67C631.41,336.15,631.63,335.83,632,335.9Zm27.11,19.17a.27.27,0,0,1,.52-.1c1.21,2.05.71,4.57-.21,6.66,0,.06-.17.06-.12,0C659.64,359.36,658.86,357.26,659.09,355.06Zm12.23,21.26a17.6,17.6,0,0,1-1.11,1.66c-2.81.52-5.71,1-8.68,1.4a16.82,16.82,0,0,0,3.92-6.45c3.76-11.65-1.92-22.27-10.09-30.33-7.43-7.37-18.89-10.39-28.94-12.47-10.54-2.18-20.54,0-30.94,1.68,8.36-2.05,16.8-3.77,25.4-4.09,19.8-.73,48.64,8.59,52.83,31C674.74,364.33,674.3,371.32,671.33,376.33Zm48.9-55.12a12.39,12.39,0,0,0-1,2.89s-.08,0-.08,0c0-1.8.1-4.4,1.87-5.36a.26.26,0,0,1,.36.29A8.59,8.59,0,0,1,720.22,321.21ZM744,325c-2.6-.11-5.56-.48-7.77,1.17,0,0-.06,0-.06,0,1.67-2.64,5.39-3.73,8-1.78A.35.35,0,0,1,744,325Zm11.63,1.8c-1.15-1-2.31-2-3.54-2.93a83.13,83.13,0,0,0-11.54-7.06c-6.38-3.12-16.82-5.32-22.42.31a7.17,7.17,0,0,0-1.27-2.58c-1.54-2.12-5.88-3.58-8.41-1a4.08,4.08,0,0,0-.75,4.88c.89,1.34,3,1.51,3.66.57s-.82.08-1.59.13c-1.34.13-2.48-1.89-2.1-3.42a4.2,4.2,0,0,1,3.18-3,5.48,5.48,0,0,1,6.08,3.62,5.77,5.77,0,0,1,.35,1.7,10.3,10.3,0,0,0-1,1.42,12.44,12.44,0,0,0-1.55,4.8c-.09.08-.19.19-.29.27a9.08,9.08,0,0,1-6.78,1.76s0,0,0,0c-1.25-.86-3.33-1.34-5.06-2.18-5.29-4.27-3.75-12.32-1.8-15.06,3.36-4.69,8.42-6.1,13.61-6.2,7.33-.09,13,3.16,17.88,5.84a100.53,100.53,0,0,1,12.87,8.69c3.67,2.91,7.21,6,10.77,9C755.8,326.53,755.69,326.68,755.59,326.85Z" style="fill:#fff"/><path d="M587.26,313.4c-3.29.31-6.58,11.54-9.26,13.89l3.65-2.2a78.7,78.7,0,0,0,11.69-15.61c-1.15.44-2.3.82-3.48,1.19a29.62,29.62,0,0,1-2.18,5.15A9.63,9.63,0,0,0,587.26,313.4Z" style="fill:#fff"/><path d="M457.72,333.84c10.48,5.53,22.22,4.61,33,.61a6.46,6.46,0,0,0,.63-.27c.25-.25.48-.5.71-.75A49.43,49.43,0,0,1,467,334.74c-10.55-2.34-18.55-9.89-24.08-18.87-.37-.59-.69-1.17-1-1.78-1.11-.29-2.22-.54-3.34-.84A44.33,44.33,0,0,0,457.72,333.84Z" style="fill:#fff"/><path d="M373.76,287.29c-5.53,2.18-12.32,10.47-7.73,18.88,2.26,4.06,10.46,8.82,15.24,1.86a7.41,7.41,0,0,0,.79-6c.9-1.45,3.18-.71,4.6-.46a11.87,11.87,0,0,0,5.56,0c2.88-.82,5.37-2,8.27-2.18l-.15-.06c-3.9-1.76-8-1.17-12.19-1.26,0,0,0-.08,0-.08,2.7-.31,5.81-1.22,8.74-1.15-2.43-1.38-4.92-2.68-7.62-2.39-3.16.34-6.95,4.29-7.26,7.48a5.2,5.2,0,0,0-.41-.86,5.56,5.56,0,0,0-5.4-2.6,3.55,3.55,0,0,0-3,2.64c-.37,1.42,2.35,5,3.91,2.74.42-.69-.29-1.07-.54-.44-.94,2.3-3.1-1.63-2.45-2.77a4.33,4.33,0,0,1,5.51-.82c2.81,1.84,2.47,6.1.73,8.23a7.7,7.7,0,0,1-7.89,2.16c-9.67-2.87-6.08-16.66-1.2-20,6.62-4.63,14.74-2.35,20.26.69-1.69-1.22-3.38-2.49-5.06-3.81A19.4,19.4,0,0,0,373.76,287.29Z" style="fill:#fff"/><path d="M435.94,327.79s.08,0,.05,0c-8.22-8.42-15.86-17.35-24.88-25-3.1-1.57-6.23-3.29-9.34-5.17,4.92,3.77,9.28,7.73,13.66,11.38A250.71,250.71,0,0,1,435.94,327.79Z" style="fill:#fff"/><path d="M453.64,327.62a31.89,31.89,0,0,0,9.45,5.43,58.53,58.53,0,0,0,6,1.8s0-.06.07-.11a1.46,1.46,0,0,1-.44-.12,34,34,0,0,1-3.16-1.51,20.1,20.1,0,0,1-3-1.72c-1.1-.84-1.72-2.09-3-2.72-.09.13-.33.36-.41.5.08-1.19-.38-1.72-1.42-2.51-.7-.54-2.22-.9-1.77-2-1.17.94-.1,1.93.38,2.89-1.9-.94-2.57-4.08-2.08-6.05.17-.69,1.65-4.21.71-4.8l-.38-.06a1.29,1.29,0,0,0-.38,0s0-.06.06-.08c-2-.34-4.06-.71-6.14-1.13a3.54,3.54,0,0,0,.27,1.19c-.18-.31-.22-.17-.61-.38-.65,1.86.76,4,1.72,5.68-1.66-1.32-2.79-4.25-3.45-7-.54-.11-1.07-.21-1.6-.34A28.54,28.54,0,0,0,453.64,327.62Z" style="fill:#fff"/><path d="M359.6,329.34c.63-2.39,4.1-2.47,6-2.51a19.23,19.23,0,0,0,8-1.68,68.89,68.89,0,0,1,6.47-2.75,40,40,0,0,1-7.25,0,0,0,0,1,1,0-.06,43.15,43.15,0,0,0,6.05-.9c-3.75-.36-7.42-1.59-11.25-.88,0,0,0,0,0-.08,3.79-1.36,7.66-.61,11.59-.92l1.47-.17c-1.78-.8-3.54-2.37-4.94-3.14a10.86,10.86,0,0,0-8.3-1.21c-5.42,1.36-7.9,8-7.83,13.16Z" style="fill:#fff"/><path d="M393.06,317.44a45.07,45.07,0,0,0,16.2,4.88A89.52,89.52,0,0,1,425.58,326c.59.19,1.22.4,1.93.61-5.27-2.76-9.89-6.47-15.6-8.34,0,0,0-.11,0-.11a44.49,44.49,0,0,1,8.51,2.83c-6.78-4.25-14-9-22.11-9.34-.05,0-.05-.08,0-.08,8.57.08,15.59,3.54,22.94,7.56,2.41,1.32,4.86,2.58,7.31,3.77-4.25-3.37-8.57-6.49-12.68-10.1-3.46-3-7.88-7.06-12.54-8-9.06-1.74-17,5.19-24,9.93C383.89,312.83,389,315.39,393.06,317.44Z" style="fill:#fff"/><path d="M366,283.67c1.93-1.28,4,.42,5.82,1,2.16.75,4.26.25,6.43.06a23,23,0,0,1,5.72.27l-.16-.12c-2.84-1.53-5.73-3-8.62-4.38,0,0,0-.06,0,0,1.85.67,3.72,1.26,5.58,1.89-1.57-1.38-3.16-2.81-4.72-4.29-.79-.73-1.55-1.49-2.32-2.24,0,0,0,0-.08-.06C370.08,276.34,367.31,280.09,366,283.67Z" style="fill:#fff"/><path d="M416.58,341.91a23.67,23.67,0,0,0-8.19,2.37c-2.44,1.34-3.88,3.31-5.6,5.47-1,1.28-2.85,3.16-3.15,4.69,5.07-3.12,11.65-1.76,16.4-5.74a32,32,0,0,1,6.12-3.94c-4.43,1-9,1.89-12.78,4.44,0,0-.08,0-.06-.06,3.39-3.2,7.64-4.5,11.9-6-2.73.36-5.45.67-8.15,1.26,0,0-.06-.06,0-.06,3.87-.94,7.73-1.86,11.63-2.66l1.82-.46c.15-.06.25-.12.38-.17L425,341C422.47,341.91,419.24,341.53,416.58,341.91Z" style="fill:#fff"/><path d="M369,367.43s0,0,0,.06,0,0,0,0S369.07,367.3,369,367.43Z" style="fill:#fff"/><path d="M466.91,330.58c8.56,5.3,18.74,4,27.54.23.45-.52.92-1,1.34-1.55-3.1-.12-6.25-1.36-8.84.29.58,1.4,2,1.28,3.33,1.32-7.48,1.24-6.34-6.28-11.08-9a9.34,9.34,0,0,1-.69,1.07c.72-1.24-2.12-2.85-4.19-4.29-1.82-.08-3.68-.19-5.59-.31-1.09,1.57-1.47,3.39-.14,4.67-.52,0-.91.4-1.36.5.07,2.3,2.16,3.44,4.15,3.92-3.95,2.7-8.12-5.2-7.82-8.17a7.23,7.23,0,0,1,.46-1.32c-1.93-.19-3.87-.44-5.86-.71C459.31,322.66,462.69,328,466.91,330.58Zm11.37-1.28a.31.31,0,0,1-.49.15c-.55-.42-.57-.92-.89-1.51a13.27,13.27,0,0,0-1-1.51c-.07-.06,0-.21.14-.17C477.18,326.53,478.54,328,478.28,329.3Zm-5.2-8c3.27,1.15,6.42,3.54,7.48,7a.24.24,0,0,1-.39.25,16.4,16.4,0,0,1-2.8-3.44A12.47,12.47,0,0,0,473,321.5C472.91,321.44,473,321.34,473.08,321.34Z" style="fill:#fff"/><path d="M495.64,326.59a5.74,5.74,0,0,0,3.39-1.24l.75-.94a2.18,2.18,0,0,0,.23-1.17l-.42-.27c.07,1.07-1,1.38-1.87,1s-1.13-1.78-2-1.42c0,.15,0,.38,0,.48-.29-.59-.73-1.32-1.49-1.36s-1.66.88-1.55-.65a2,2,0,0,0,.21,2.6l-.19-.08c-.29.92.92,1.66,1.76,1.7-1.51.52-3.14-1.61-3.27-2.91,0-.48.84-4.38-.24-3.65a.7.7,0,0,0,.28-.31c-.5,0-1,.06-1.53.11a4.12,4.12,0,0,0-.05.94,19.74,19.74,0,0,0,.43,2.22.25.25,0,0,1-.33.31c-1.27-.8-1.16-2.18-.7-3.46-.62,0-1.26.06-1.91.08a9.57,9.57,0,0,0,2.4,5.51A8.27,8.27,0,0,0,495.64,326.59Zm-1.26-2.93c-.05-.08.07-.19.13-.13a5,5,0,0,0,2.17,1.11.16.16,0,0,1-.07.29A2.76,2.76,0,0,1,494.39,323.66Z" style="fill:#fff"/><path d="M286.95,311.89c3.17-1.3,6.38-2.53,9.61-3.75v0c-2.19.92-4.31,2-6.43,3.08,3.76-1,7.43-2.18,11.41-1.51,0,0,0,.06,0,.06-3.91,0-7.61,1.59-11.26,3a27.32,27.32,0,0,1,6.29-.15c5.31.5,9.35-3.67,14.46-3.88-.94-1-3.16-1.45-4.52-1.87-2.28-.69-4.27-1.4-6.66-1.13a19.93,19.93,0,0,0-7,2.28c-2.07,1-4.19,2.87-6.41,3.5l-1.32.92.33-.08C285.94,312.29,286.44,312.1,286.95,311.89Z" style="fill:#fff"/><path d="M339.21,303.15s0,0,0,0-.1-.06,0,0Z" style="fill:#fff"/><path d="M505.83,316.67c-.24.36-.51.75-.86,1.24a145.52,145.52,0,0,1-17.22,20c.81-.8,1.6-1.61,2.36-2.39-1.14.59-2.23,1.07-3.15,1.47a37.31,37.31,0,0,1-11.38,3.33c-1.78,0-3.54,0-5.28-.08a52,52,0,0,1-20-6.66,65.77,65.77,0,0,1-25.8-24.93c-1.21-.46-2.42-.92-3.64-1.42.15.31.3.61.46.9-.2-.31-.38-.63-.57-.94-1.36-.57-2.7-1.13-4-1.76.55.86,1.1,1.72,1.68,2.56a50.8,50.8,0,0,0,8.5,9.36l-1.1-2s0,.06.06.08c5.76,8.13,14,14.56,22.54,19.53,1.93,1.11,4,2.16,6.14,3.12-18.45-3.94-36.6-11.71-55.29-13.18A70.6,70.6,0,0,0,373.1,328a63.18,63.18,0,0,0-10.72,3.25,89.47,89.47,0,0,0-15.94,7.39c.74.36.86,1,1.39,1.47-3,1.7-6.92-1.68-9.44,1.47.11.17.39.42.44.5-3.16.86-1.95,4.52-5.76,3.9,1.43,1.36,3.13,1,4.55,1.66-.5.13-1.09.5-1.57.65,2.47,1.36,3.35.06,5.26-1.19-.48,4.48-7.31,2-9.72.88-1.8-.84-10.56-5.13-9.78.52-2.3-.25-5.94,5.32-7.39,2.89,1.36,3.27,3,6.7,7.22,6.64-.32.27-.4,1-1.16,1.34,1.45,3,5-.38,7-.13-3,3-8.14,2.47-11.84.78-2.07-1-8.21-9.43-9.57-6.37,2.39-4.71-6-7.29-3.78-12.88a6.31,6.31,0,0,1,11.35-1.07c-2.09-2.05-6.15.31-6,3.35.14,3.73,4.7,5.26,7.38,3.27,6.27-4.63-2.67-12.55-8.16-12-9.93,1-12.65,12.3-8.46,20,5.7,10.54,18.67,11.77,29,7.5,9.11-3.79,14.83-12.44,21.91-19a35.75,35.75,0,0,0-5.61,8.59,34.19,34.19,0,0,0-1.49,23.06,19.26,19.26,0,0,0,.69,2.08c-23.55-5.45-41.28-15.13-54.09-24.87a122.81,122.81,0,0,1-19.36-18.35c.81-.94,1.49-2.24,2.75-2.6a2.22,2.22,0,0,1,2.7,1.57c.29,1.91-1.56,1.49-2,2.79,4.06.65,3.16-4.88,1.21-6.74-2.85-2.75-4.91-.21-7.75.21,2-3.29,8-3.44,11-1.66,1.49.84,2.49,2.58,4.08,3.41,1.19.65,5.3.69,3.12-1.15,1.55,1,3.23.11,4.56.52a2.16,2.16,0,0,1,1.52,1.66c2.37-4.69.06-12.72-6.26-11a12.65,12.65,0,0,0,1.21-1.13c-2.18-.65-3.95.5-5.89,1.09a13,13,0,0,1,12.44-2.62,8.86,8.86,0,0,1,5.22,4.25c.7,1.49-.36,6,2.07,5.36-2.28,1.07-1.28,3.79-2.56,5.36s-4,1.68-5.09-.17c1.93,4.63,8.67,2.77,11.1-.27a10.78,10.78,0,0,0,2.43-6.89,9.53,9.53,0,0,0,3.85,1.93,11.32,11.32,0,0,0,2.16.21c-1.34,2.09-2.47,5.51-5.22,3.58,1.91,2.64,6.12,3.2,8.8,1.93s4.29-5.3,4.19-8.25a18.73,18.73,0,0,1-4.55,4.36s-.07,0,0-.06a19.07,19.07,0,0,0,2.39-3.29,13.5,13.5,0,0,0,3.54-3.62,15.16,15.16,0,0,0-.5,5.63c.8,6.12,6.81,10.45,12.76,8.69a7,7,0,0,0,4.49-3.83c.62-1.47,1.23-2.62,2.89-2.93-2.88-1.72-5.32-.75-6.42,2.26-.63,1.8-4.75,5.74-6.33,2.81,1-.15,2.78.78,3.58-.38a7.9,7.9,0,0,1-.75-.36,2.85,2.85,0,0,0,2.51-2.76c-1.15,1-1.94-.65-3.31-.34,1.29-.17.43-1.11-.29-1.3a5.52,5.52,0,0,0-2.64.38c-1,.27-4.5.9-4.61-.94.79-.23,1.83.8,2.75.9a5.24,5.24,0,0,0,3.24-.8c-.82-.08-1.57-.65-.82-1.47-.33-.44-.78-1.24-1.09-1.36.2,0,.46-.11.65-.08.61-1.84-2.83-3-2.87-5,.67.48.73,1.26,1.52,1.67s2.26.19,1.12-.46a2.18,2.18,0,0,0,1.72-.88c-1,.17-.54-.71-.88-1.24a4.81,4.81,0,0,0-1.55-1.32c1.24-.31-2.24-3-2.66-3.73-.12-.19-.23-.4-.34-.61a12.5,12.5,0,0,0-7.45-11.19c-12.57-5.91-26.27,1.47-34.94,7.92-5.89,4.36-11,9.59-16.37,14.66-.17-.27-.33-.52-.51-.78,2.61-2.41,5.13-4.94,7.59-7.65,3.4-3.79,6.75-7.71,10.15-11.56l-.71,1.34c2.16-2.58,4.8-3.88,7.69-5.11,2.71-1.17,7.56-1.59,9.81-3.42-.14-.21-.35-.5-.49-.71,1.31.1,2.51.5,3.85.1s.91-1.84,2.82-1.36a5.47,5.47,0,0,0-4.58-1.61c1.11-.42.4-.36.84-1.11-2.14-.48-3.53-.31-5.13,1.24,2.83-3.33,8.81-2.81,12.59-1.82,2.07.5,4.17,1.28,6.29,1.86,1,.27,6.16.69,4.47-1,2.7,2.16,7.21-1.86,10.22.67a3.07,3.07,0,0,1,.65,4.25c-1.07,1.36-3,.63-4.06,1.72,8,3,9-14.83-.69-15.08a4.83,4.83,0,0,0,2-1c-1.5-.8-3.61-.63-5.35-.77,4.44-.94,9.38,1.53,12.66,4.5a19.15,19.15,0,0,1,3.7,5c.58,1,1.78,5.15,3,3.83-.23,1.89,2.64,6.43-1.46,5.55,3,2.16,8.09-1.74,8.78-4.78.21.8.5.65.89,1.19,1.3-1.19.28-3,.07-4.48.69,2.51,1.53,4.75.31,7.35s-4,3.19-5.18,5.36c.38.15,1.17.65,1.22.65-4.19.4-5.91,10.5-11.42,5.47,1.45,1.55,3.44,3.21,5.62,3.42,9.59.84,15.07-9.05,12.63-17.35-3-10.12-12.19-14.94-21.94-16.72-8.88-1.63-18.51,1.82-26.7,5.22-8.62,3.62-14.72,10.05-21.31,16.38a108.5,108.5,0,0,1,16.19-15.36c13.74-10.18,38.84-17.62,52.73-3.69,3.5,3.52,6.55,8.74,6.89,13.74a22.94,22.94,0,0,1-6.33,16.84c-4.13,4.29-9.79,6.64-15.61,4.48s-9.13-6.89-8.53-13.13a.49.49,0,0,0-.92-.29c-3.67,6.87,1.38,13.93,8.05,16.47,7.7,2.93,15.26.59,20.82-5.36,5.69-6.12,9.1-15.25,6.19-23.46a29.45,29.45,0,0,0-12.28-15.71c-16-9.72-38.87-2.85-52.52,8.11-12.91,10.41-22.28,25.26-33.95,37.23a2.45,2.45,0,0,0-.19-.31c-.49-.73-.85-1.32-1.1-1.74.29-.46.71-1.11,1.24-1.95,7.4-11.08,38.63-52.65,96.7-60.4-.76-.92-1.57-1.84-2.29-2.77-67.37,9.93-98.68,64.19-98.77,64.32l-.42.75.41.75c.09.23,33.42,61.53,126.85,60.71,1.08,0,2.15,0,3.24-.06,80.57-2,120.7-67.08,120.79-67.23l.52-.88-.06-.1L509,316S507.9,316.31,505.83,316.67ZM326.06,351.25c2.05-.21,4.44-.8,6.5-.44.25,0,.21.36,0,.42-1.92.92-4.46.44-6.47.34A.16.16,0,0,1,326.06,351.25Zm9.19,1.95c-3.5,2.28-8,1.76-11.74.52,0,0,0-.08,0-.08a18.88,18.88,0,0,0,6.41-.31,20.34,20.34,0,0,1,5.12-.65A.29.29,0,0,1,335.24,353.2Zm4-63.16c1.87.86,2.76,2.89,3.1,4.84,0,.08-.08.13-.13.06-.81-1.76-2.38-2.89-3.29-4.57A.24.24,0,0,1,339.23,290Zm-29-.1c4.31-1.74,9.91-2,14.14,0,.08,0,0,.17,0,.13-3-.67-5.53-.12-8.47.42-1.9.31-3.76.65-5.59,0A.28.28,0,0,1,310.24,289.93Zm-26.38,36.24s0,.06-.05,0c-2.22-1.65-5.18-1.28-7.78-1.17a.35.35,0,0,1-.17-.65A5.66,5.66,0,0,1,283.87,326.17Zm17-2.07a13,13,0,0,0-1.07-2.89,8.61,8.61,0,0,1-1.09-2.2.25.25,0,0,1,.33-.29c1.8,1,1.89,3.56,1.89,5.36C300.9,324.12,300.83,324.12,300.83,324.1Zm-36.75,2.28c3.56-3,7.08-6.07,10.77-9a99.68,99.68,0,0,1,12.87-8.69c4.83-2.68,10.54-5.93,17.88-5.84,5.17.1,10.24,1.51,13.6,6.2,1.95,2.74,3.5,10.79-1.8,15.06-1.72.84-3.8,1.32-5.05,2.18,0,0,0,0-.05,0a9.13,9.13,0,0,1-6.78-1.76l-.27-.27a12.22,12.22,0,0,0-1.55-4.8,13.2,13.2,0,0,0-1-1.42,5.86,5.86,0,0,1,.35-1.7,5.48,5.48,0,0,1,6.08-3.62,4.23,4.23,0,0,1,3.18,3c.39,1.53-.74,3.54-2.08,3.42-.78,0-2.33-1.17-1.6-.13s2.77.77,3.67-.57a4.08,4.08,0,0,0-.76-4.88c-2.52-2.54-6.87-1.07-8.41,1a7.52,7.52,0,0,0-1.26,2.58c-5.6-5.63-16-3.44-22.44-.31A83.31,83.31,0,0,0,268,323.91c-1.23.9-2.4,1.91-3.55,2.93C264.3,326.68,264.19,326.53,264.09,326.38Zm211.44,13.93c-.65.06-1.3.08-2,.08l-.77,0C473.71,340.36,474.62,340.36,475.53,340.32ZM349.77,378c-.4-.52-.77-1.09-1.12-1.66-3-5-3.42-12-2.39-17.64,4.2-22.37,33-31.7,52.84-31,8.59.31,17,2,25.4,4.09-10.42-1.72-20.42-3.85-31-1.68-10.06,2.07-21.49,5.09-28.94,12.47-8.16,8.06-13.84,18.69-10.07,30.33a16.75,16.75,0,0,0,3.9,6.45C355.49,379,352.58,378.51,349.77,378Zm38.61-41.56c-1.36,1.84-3.35,2.76-5.38,3.67-3.14,1.42-5.95,2.53-8.36,5.15,0,0-.17,0-.13-.08,2.73-4.69,8.26-8.11,13.49-9.26A.34.34,0,0,1,388.38,336.42Zm-27.68,25.16c0,.1-.1.1-.12,0-.93-2.09-1.42-4.61-.21-6.66a.28.28,0,0,1,.52.1C361.13,357.26,360.37,359.36,360.71,361.58Zm34.95,19c-2.26.17-4.57.29-6.89.34,2.7-6.39,1.79-14.06-4.93-17.58a.58.58,0,0,0-.72.88c4.35,5.17,4.57,11.25,1.32,16.76q-3.16,0-6.22-.06c1.74-1.65,2.54-4.36,2.91-6.66-2,8.42-10.22-.1-14.52,2.24.07,0,.46-1,.71-1.42-2.55-1.28-5.63-.13-8.4-1.74s-3.52-4.38-4.53-7.25c.75,1.55,1,4,3,4.25,0-.78.4-.82.08-1.72,2.65,2.45,10,2.87,11.52-1.17-3.37,3.52-3.58-2.68-5-4.34,2.07.4.54-4.32.42-5.68a21.57,21.57,0,0,1,.25-7.21c1.17-5,4.27-10.58,9.19-12.59-1.6,1.28-3.73,2.51-4.64,4.25a6.12,6.12,0,0,0,2.56-.31c-9.08,6.56,3.51,23,9.15,14.85-1.76-.29-3.07,1.63-5,1a3.56,3.56,0,0,1-2.16-4.5c1.2-4.42,8.13-3.5,9.32-7.33-.5,2.72,4.13-1,4.92-1.95,1.66-2,3.14-4,4.8-6,3-3.37,8.36-7.79,13.26-6.45-2.59-.44-4,.31-5.72,2.16.92.46.17.86,1.51.52-1.79.71-3,2.81-3.33,4.55,1.51-1.7,2-.06,3.57-.54s2.46-1.66,3.64-2.62c0,.31,0,.69,0,1,3.31.29,8.22-2.47,11.59-3.14,3.57-.71,6.92-1.22,10.67-.13l-1.51-.8c5.76,1.45,11.48,3,17.24,4.4a132.64,132.64,0,0,0,14,2.66,48.57,48.57,0,0,0,6.41,2C453,340,442,337.24,430.77,336.82c-12.5-.5-30.43,1.4-38.58,15.23a14.5,14.5,0,0,0,.18,15.67c0,.25.06.5.07.75,0,.92-1.51,5.78-.12,5.28a5.11,5.11,0,0,0-.62,2.28c0,.73,1,1.24,0,1.76a2.53,2.53,0,0,0,2.22-.27c-.69,1.36,1,.48,1.37-.29s0-1.7.37-2.6C396.7,376.27,395,379,395.65,380.62Zm13.87-4.46a21.82,21.82,0,0,1-7.21-1.19,12.23,12.23,0,0,0,5.06,4.32c-1.09.19-2.21.31-3.33.46-.18-.46-.36-.9-.58-1.34a18,18,0,0,0-4.19-5.09,15,15,0,0,0,5.65,1.17,21.31,21.31,0,0,0,4.6,1.59S409.56,376.16,409.52,376.16Zm7,1.36a7.45,7.45,0,0,0,2.38-5c-1.36,3.62-4.64,1.07-7.34,0a13.48,13.48,0,0,0,1.95-1.59,11.4,11.4,0,0,0,2.43-4.38,12.55,12.55,0,0,0,6.83,5c4.3,1.28,12-1.34,10.81-7,.19,2.47-2.52,4.17-4.76,3.5s-3-3.92-5.94-3.44c2.74-1-1.23-4.63-1.56-6.49-.46-2.56.71-5.47,2.23-7.48A15.05,15.05,0,0,1,437.13,345c-2.25.67-4.71.75-6.36,2.79a14.31,14.31,0,0,0,1.9.29c-7.16,2.47-4.15,11.67,1.19,14.6a2.55,2.55,0,0,1,.38-2.6c1-1.24,3.21-1.47,4-3.46-.89,3.18,3,.48,3.71-.92,1-1.87.78-4.17,1.66-6,1.76-3.69,7.58-7.44,11.63-5.59-3,1.45-6.62.38-7.56,4.84-.63,3.08,2.1,9,5.56,5.68-1.3-.92-2.78.67-3.74-1.32a2.57,2.57,0,0,1,1.57-3.29c2.87-1,6,3.31,8.06-1.26-.79,3.83,5,.38,5.49-2.2,2.71,1.21,5.55-2.51,7.25-4l-2.75.08c-6.22,0-12.41-1.7-18.49-1.89a92.31,92.31,0,0,0-15.62.82c-8.15,1.15-19.59,5.89-21.26,14.92a8.35,8.35,0,0,0-2.87-1.63c-2.87-1-8,.44-8.74,4.5-.38,2,.6,4.4,2.45,5.15s3.83-.48,3.87-1.84-.69.59-1.42,1.15c-1.22,1-3.58-.17-4.26-1.89A5,5,0,0,1,404,357c2.24-2.37,5.88-2.12,8.18-.5a6.52,6.52,0,0,1,1.45,1.38c0,.65,0,1.3,0,2a14.3,14.3,0,0,0,1.63,5.61,2.44,2.44,0,0,1-.11.46,10.38,10.38,0,0,1-5.3,6.1h-.07c-1.75,0-4,.9-6.21,1.22-7.9-.59-11.67-9.3-11.61-13.2.17-6.68,4.06-11.33,9-14.81,7-4.88,14.51-5.53,20.92-6.12a109.76,109.76,0,0,1,18-.08c8.41.59,16.73,1.72,25.11,2.47a32.18,32.18,0,0,0,13.91.17,53,53,0,0,0,7.42-2.47l.15,0C471.38,353.6,448.07,370.4,416.48,377.52Zm1.11-21.41a.29.29,0,0,1,.52,0,14,14,0,0,1,.4,2.87,15.11,15.11,0,0,0,.84,3.39s0,.06-.06,0C418.11,360.76,416.52,358.21,417.59,356.11Zm25.83-9.74a.41.41,0,0,1,.27.73c-2.55,1.59-5.64,3.18-6.66,6.22,0,0-.06,0-.08,0C436.83,349.7,439.65,346.25,443.42,346.37Zm12.62,0c1.67-1,4-2,5.92-1.17.28.1.15.5-.12.52-1,.15-1.9,0-2.85.13a10.53,10.53,0,0,0-2.88.69C456,346.56,456,346.41,456,346.37Zm30.41-7.21-.08,0a.32.32,0,0,1,.13,0S486.47,339.17,486.45,339.17Z" style="fill:#fff"/><path d="M442,327.29c-2.65-2.35-6-13.58-9.25-13.89a10.35,10.35,0,0,0-.44,2.43,30.24,30.24,0,0,1-2.17-5.15c-1.14-.38-2.32-.75-3.47-1.19a78,78,0,0,0,11.69,15.61Z" style="fill:#fff"/><path d="M552.27,281.53c1.76,1.07,3.51,3.77,2.85,5.8-.36-1-.29-2.49-1.78-2.33,1.07.44.24,1.78.13,2.68-.19,1.28-.13,2,.77,2.79a3.52,3.52,0,0,1-.65-.08c-.47,1.38,0,2.72-.2,4.11a17.81,17.81,0,0,1-.92,3.37c-.4,1.09-.71,2.3-1.21,3.37a3.68,3.68,0,0,1-.21.38c.06,0,.08,0,.13,0,1.13-1.76,2-3.71,3-5.57A31.45,31.45,0,0,0,557,285.49a28.72,28.72,0,0,0-2.5-15.57c-.28.46-.58.9-.87,1.34,1.38,2.37,2.58,5.15,2.37,7.19-.5-1.87-1-4.4-2.83-5.26-.13.44-.26.36-.16.69a3.72,3.72,0,0,0-.53-.84c-1.33,2-2.71,3.92-4.13,5.84C548.7,279.94,551.72,281.2,552.27,281.53Z" style="fill:#fff"/><path d="M603.19,227.61c.41-.31.77-.65,1.16-.94,3-2.6,5.25-5.87,8.94-7.58.05,0,.09,0,.05.06-3.25,2.2-5,5.7-7.41,8.63a40.28,40.28,0,0,0,5-3.69s.09,0,.07.06a42,42,0,0,1-5.24,5.13c2.19-1,4.21-1.82,6.58-2.66a19.23,19.23,0,0,0,6.91-4.52c1.37-1.32,3.9-3.71,6.05-2.45-.29-.29-.52-.54-.79-.82-3.65-3.77-10.13-6.68-15-3.77a11.14,11.14,0,0,0-5,6.79C604,223.38,603.91,225.74,603.19,227.61Z" style="fill:#fff"/><path d="M576.62,233.33c-2.68,4-2.93,10-3.24,14.64-.41,5.49-1.23,10.79-1.85,16.24.87-2.62,1.74-5.26,2.49-7.9,2.41-8.13,4.92-15.61,11-21.75,0,0,0,0,0,0-5.53,6.07-7.28,14.58-9.09,22.42a42.58,42.58,0,0,1,4.08-8s.08,0,.06,0c-2.77,5.38-3.42,11.38-5.2,17.05.33-.63.68-1.24.94-1.8a94.37,94.37,0,0,1,9-14.22,44.93,44.93,0,0,0,8.07-15c1.45-4.38,3.29-9.85,7.82-11.69C592.46,224.91,581.84,225.68,576.62,233.33Z" style="fill:#fff"/><path d="M584.76,196.54c.85-1.72,1.12-4.4,3.42-4.88a14.75,14.75,0,0,0-7.26-1.47q-.49,5.88-1.34,11.63c.22-.19.41-.42.65-.61C581.89,199.79,583.76,198.63,584.76,196.54Z" style="fill:#fff"/><path d="M601.14,265.09a23.9,23.9,0,0,0-7.53,4.15c-2.17,1.59-4.19,4.19-6.6,5.38L585.67,276a4.2,4.2,0,0,1,.39-.17c.54-.33,1.09-.65,1.61-1,3.37-2.2,6.79-4.32,10.19-6.41,0,0,.05,0,0,0-2.32,1.53-4.47,3.25-6.69,4.94,4.08-2,8.05-4.13,12.76-4.23,0,0,0,.1,0,.1-4.52.84-8.42,3.48-12.3,5.93a32.08,32.08,0,0,1,7.21-1.53c6.19-.59,9.92-6.22,15.78-7.63-1.34-.86-4-.92-5.62-1.11C606.26,264.65,603.84,264.27,601.14,265.09Z" style="fill:#fff"/><path d="M645.73,253.5h.05a0,0,0,0,0,0,0C645.58,253.42,645.58,253.42,645.73,253.5Z" style="fill:#fff"/><path d="M657.76,156.9a20.22,20.22,0,0,0-6.62,3.33c-1.9,1.55-2.81,3.46-3.93,5.57-.66,1.28-1.88,3.18-1.91,4.55,3.81-3.48,9.66-3.39,13.07-7.54a27.51,27.51,0,0,1,4.6-4.36c-3.59,1.55-7.39,3.06-10.2,5.84,0,0-.07,0-.05,0,2.35-3.29,5.78-5.11,9.2-7-2.28.73-4.57,1.47-6.77,2.37,0,0,0,0,0,0,3.16-1.42,6.32-2.83,9.52-4.17.48-.19,1-.44,1.48-.67l.28-.19-1.59.29C662.8,155.94,660,156.13,657.76,156.9Z" style="fill:#fff"/><path d="M621.17,186.44v0c0-.15,0-.15,0,0Z" style="fill:#fff"/><path d="M454.92,276.92c-.24-3.6,5.38-14,3.27-16.49a9.17,9.17,0,0,0-2,1.4,28.07,28.07,0,0,1,1.9-4.78c-.54-1-1.07-2.07-1.58-3.12a79.33,79.33,0,0,0-2.6,18.83Z" style="fill:#fff"/><path d="M569.68,273s.07,0,.07,0A261.45,261.45,0,0,1,571,244.93c.36-3.71.57-7.46.94-11.35-.8,2.3-1.61,4.61-2.5,6.87C568.78,251.28,569.57,262.11,569.68,273Z" style="fill:#fff"/><path d="M589.1,200c5.84-1.07,18.23,6.18,13.39,15.15a7.75,7.75,0,0,1-7.18,4.09c-2.72-.29-6-3.08-5.34-6.41.44-2.05,2.77-3.67,4.56-3.31,1.27.29,2.52,4.65.22,3.71-.66-.29-.86.48-.13.67,2.77.52,2.14-4,.86-4.71a3.52,3.52,0,0,0-4,.29,5.59,5.59,0,0,0-2,5.7,4.58,4.58,0,0,0,.36.94c-2.51-2.09-8-2.22-10.54-.21-2.14,1.72-3,4.42-3.74,7.16,2-2.14,4.91-3.71,7-5.43,0,0,.09,0,.06.06-2.9,3-6.28,5.57-7.79,9.57a.8.8,0,0,0,0,.17c2.14-1.95,4.8-2.87,7.44-4.34a11.8,11.8,0,0,0,4-4c.84-1.15,2-3.33,3.65-2.93a7.4,7.4,0,0,0,4.84,3.75c8.34,1.53,10.81-7.71,9.53-12.21-2.7-9.26-13.47-10.33-19-8a18.23,18.23,0,0,0-6,4.42c-.17,1-.33,2-.5,3A16,16,0,0,1,589.1,200Z" style="fill:#fff"/><path d="M450.25,273a0,0,0,1,0,.06,0c.13-10.87.9-21.68.27-32.49-.9-2.26-1.71-4.57-2.51-6.87.36,3.88.6,7.62.92,11.31A258.73,258.73,0,0,1,450.25,273Z" style="fill:#fff"/><path d="M434.74,199.75c-5.47-2.37-16.23-1.3-18.94,8-1.29,4.5,1.17,13.74,9.53,12.21a7.4,7.4,0,0,0,4.84-3.75c1.68-.4,2.81,1.78,3.64,2.93a11.71,11.71,0,0,0,4,4c2.64,1.47,5.29,2.39,7.44,4.34a.89.89,0,0,1,0-.17c-1.52-4-4.9-6.54-7.78-9.57,0,0,0-.1,0-.06,2.15,1.72,5,3.29,7.06,5.43-.74-2.74-1.6-5.45-3.74-7.16-2.51-2-8-1.88-10.54.21a3.64,3.64,0,0,0,.34-.94,5.54,5.54,0,0,0-2-5.7,3.52,3.52,0,0,0-4-.29c-1.28.75-1.91,5.24.86,4.71.74-.19.52-1-.1-.67-2.33.94-1.07-3.42.19-3.71A4.34,4.34,0,0,1,430,212.8c.69,3.33-2.6,6.12-5.32,6.41a7.72,7.72,0,0,1-7.19-4.09c-4.85-9,7.54-16.21,13.39-15.15a16,16,0,0,1,10.36,7.15c-.17-1-.32-2-.48-3A18.37,18.37,0,0,0,434.74,199.75Z" style="fill:#fff"/><path d="M561.8,260.44c-2.12,2.53,3.5,12.88,3.27,16.49l1-4.15a79.68,79.68,0,0,0-2.6-18.85c-.52,1.07-1,2.09-1.58,3.12a29.36,29.36,0,0,1,1.9,4.8A8.71,8.71,0,0,0,561.8,260.44Z" style="fill:#fff"/><path d="M693,143.22l-.24-.84-.83-.21c-.15,0-57.3-15.33-110.71,21.14.07,1.19.12,2.39.18,3.58,45.32-31.86,94-25,106.63-22.44,1,.19,1.72.36,2.25.48.12.46.28,1.15.47,2,0,.15.06.36.08.52-16.81-.23-34.05-4.17-50.66-2.35-17.54,1.91-38.74,13.32-43.24,31.65a29.7,29.7,0,0,0,2.46,19.94c3.77,7.92,12.73,12,21.13,12.3,8.18.29,15.28-3.44,18.66-11,3-6.56,1.53-15.17-6-17.47a.5.5,0,0,0-.45.88c4.91,4,5.92,9.74,3.3,15.4s-8.34,8.09-14.34,8a23,23,0,0,1-16.49-7.5c-3.36-3.81-4.88-9.7-4.89-14.71,0-19.8,23.15-32.43,40.21-35a111,111,0,0,1,22.54-.61c-9.22.21-18.19,0-26.89,3.56-8.26,3.39-17.6,7.79-22.77,15.29-5.7,8.23-8.82,18.25-3.75,27.57,4.17,7.63,15.13,10.79,21.35,3.33,1.42-1.7,1.68-4.29,1.61-6.43-.35,7.52-8.78,1.53-12.06,4.23,0,0,.24-.92.39-1.32-2.39-.67-4.84.79-7.47-.15s-3.72-3.16-5.06-5.45c.92,1.2,1.49,3.23,3.27,3.14-.13-.67.21-.78-.2-1.49,2.67,1.68,9,.84,9.67-2.85-2.33,3.54-3.5-1.74-5-2.91,1.83,0-.24-3.77-.57-4.9a19.46,19.46,0,0,1-.93-6.22c.22-4.42,1.95-9.74,5.81-12.23-1.15,1.36-2.77,2.74-3.29,4.4a5.39,5.39,0,0,0,2.16-.71c-6.72,7.08,6.7,19.11,10.22,11.25-1.55,0-2.36,1.88-4.08,1.68a3.09,3.09,0,0,1-2.58-3.48c.35-4,6.42-4.32,6.79-7.79,0,2.41,3.39-1.53,3.92-2.45,1.11-1.95,2.05-4,3.14-5.84,2-3.39,5.89-8,10.31-7.67-2.28,0-3.38.92-4.54,2.77.86.23.29.71,1.38.19a5.62,5.62,0,0,0-2.14,4.44c1-1.72,1.76-.38,3-1s1.82-1.82,2.68-2.81c.06.23.11.59.17.84,2.89-.29,6.64-3.46,9.41-4.57,2.94-1.17,5.72-2.14,9.11-1.82l-1.49-.46c5.18.31,10.37.73,15.5,1,3.67.19,7.27.19,10.83.06.06.29.1.59.17.88-7.37.19-14.77.15-22.06,1.24-10.77,1.57-25.81,6.1-30.56,19.25a12.66,12.66,0,0,0,2.7,13.39,4.63,4.63,0,0,1,.19.61c.17.77-.38,5.19.75,4.55a4.74,4.74,0,0,0-.19,2c.17.63,1.09.92.25,1.51a2.25,2.25,0,0,0,1.87-.59c-.38,1.28.92.27,1.12-.48s-.24-1.45-.1-2.26c1.36,1.4-.24,4.73,1.52,5.59a5.15,5.15,0,0,0,.52-.4c-.15.31.13,1.19.19,1.76,1.11,0,1,1,.47,1.61a5.28,5.28,0,0,0,2.88-1.76c.57-.69.59-2.18,1.28-2.58,1.25,1.36-1.68,3.42-2.61,4a5.43,5.43,0,0,0-2.13,1.61c-.38.63-.31,1.93.7,1.13-1.2.75-.6,2.45-2.11,2.6a2.91,2.91,0,0,0,3.75.19l-.27.75c1.39.27,2-1.63,2.82-2.26,1,3.23-4.79,3.33-6.51,2.49-2.92-1.36-5.36-.29-6.2,3,1.4-1,2.7-.57,4.15,0a7,7,0,0,0,5.93-.48c5.48-3,6.7-10.35,2.91-15.29a14.8,14.8,0,0,0-4.36-3.64,13.82,13.82,0,0,0,5,.08,18.13,18.13,0,0,0,4.15.61s.06.08,0,.08a19.33,19.33,0,0,1-6.34.13c2,2.16,6,3.9,8.86,2.87s5.4-4.38,4.9-7.6c-.59,3.29-3.81,1.66-6.27,1.15a10.25,10.25,0,0,0,1.37-1.68,9.77,9.77,0,0,0,1.39-4.15,10.86,10.86,0,0,0,6.64,3.21c3.89.4,10-3.06,8.14-7.77.54,2.09-1.53,4-3.52,3.77s-3.26-2.87-5.64-2c2.18-1.26-1.8-3.75-2.41-5.3a9.21,9.21,0,0,1,.71-6.75,13.09,13.09,0,0,1,10.77-7c-1.81.94-3.9,1.38-5,3.42.53,0,1.51,0,1.7-.06-5.76,3.27-1.7,10.64,3.37,12.3a2.17,2.17,0,0,1-.13-2.28c.67-1.21,2.5-1.76,2.89-3.6-.25,2.87,2.64-.08,3-1.4.53-1.74,0-3.69.45-5.34.92-3.44,5.31-7.58,9-6.68-2.32,1.76-5.61,1.38-5.67,5.38-.07,2.75,3.22,7.31,5.66,4-1.25-.59-2.27,1-3.4-.54a2.22,2.22,0,0,1,.79-3c1.13-.65,2.51-.23,3.73-.13a120.75,120.75,0,0,1-.71,26.46c-2.2,16-7.94,35.59-21,56.29-.26-.52-.5-1-.79-1.55A34.53,34.53,0,0,0,652.36,224a36.61,36.61,0,0,0-10.19-2.14c9.75-.38,20,1.74,29.25-2.07,10.39-4.32,18.75-14.43,15.31-26-2.51-8.42-12.47-14.52-20.28-8.19-4.32,3.5-5.07,15.52,2.71,14.35,3.34-.48,5.52-4.82,2.94-7.56-2.09-2.26-6.65-1-6.69,1.91a6.34,6.34,0,0,1,8.84-7.31c5.54,2.41,1.46,10.18,6.48,11.88-3.14-1.24-1.46,9.16-2.28,11.31-1.4,3.88-4.71,7.9-9,7.92,1.3-1.66,6.24-1.76,5.13-4.94-.84.27-1.36-.12-1.8-.12,3.06-2.93,1.78-6.56.42-9.89.68,2.79-5.89,1.4-7.37,3.23-3.44-4.59-6.62,4.69-7.31,6.6-1,2.51-4,9.18-7.56,6.31,2.26-.46,3.81-.15,4.63-2.89-.47.25-1.15.36-1.6.65.56-1.49,2-2.43,2.06-4.44-2.26,3.18-4-.29-6.89,1.34a3.86,3.86,0,0,0,0-.65c-4-.44-4.46,4.78-7.76,5.66.07-.69-.34-1.24-.05-2a90.34,90.34,0,0,0-16.63,6.1,62.94,62.94,0,0,0-10,5.36,70.59,70.59,0,0,0-20.79,16.32c-12.3,14.37-19.72,32.87-30.08,48.86A66.74,66.74,0,0,0,566,286.9c2.58-9.66,3.87-20.09,2.16-30a2.31,2.31,0,0,0-.07-.38l.74,2.49a51.87,51.87,0,0,0-.63-12.72c-.12-.61-.24-1.22-.38-1.84-.54,1.3-1.09,2.58-1.65,3.85v0c-.54,1.19-1.09,2.39-1.64,3.56a66.51,66.51,0,0,1-.81,35.43,53.34,53.34,0,0,1-9.36,18.83c-1.15,1.28-2.36,2.51-3.6,3.73a35.8,35.8,0,0,1-10.1,5.78c-1,0-1.93,0-2.85,0,9.49-4.9,17.49-12.23,20.77-22.79a44.71,44.71,0,0,0-.87-28.07c-.61,1-1.19,2-1.82,3,.17.54.33,1.09.46,1.63,2.47,10.37,2.15,21.47-3.73,30.69a49.23,49.23,0,0,1-16.32,15.52l-3-.08c7.71-3.73,14.37-9.7,16.46-18.48,1.13-4.84-.22-10.94-3.22-15.63-1.19,1.55-2.42,3.08-3.66,4.59a6.79,6.79,0,0,1,1.14.55c2.33,1.88,5,10.54.26,11.4,1.1-1.74,1.77-4.06.16-5.74-.38.27-.93.27-1.34.63.05-1.82-1.47-2.87-3.31-3.23-1.28,1.45-2.57,2.85-3.88,4.25-.46,2.54-1.3,5.64.07,6-.37-.17-.93-.13-1.25-.27-1.44,5.32,4.75,9.87-1.46,14.33.91-1,2-1.91,1.45-3.33-2.46.55-3.84,2.68-5.37,4.71l-3.39-.25a2.89,2.89,0,0,0,.42-.36,8.07,8.07,0,0,0,2.51-6.1,9.47,9.47,0,0,0-2.24-5.74c-.5.46-1,.88-1.53,1.32,1.3.59,2.47,1.47,2.09,3,0,.23-.31.19-.42,0a17.29,17.29,0,0,0-1.29-1.91,4.55,4.55,0,0,0-.85-.75c-.41.33-.8.71-1.19,1a.59.59,0,0,0,.59.11c-1.26.27,2.12,2.43,2.45,2.79.83,1,1.19,3.71-.25,4.4.55-.61.9-2,0-2.47,0,.08-.06.15-.08.23a2,2,0,0,0-1.7-2c1.15,1-.21,1-.65,1.55a2,2,0,0,0-.1,2l-.33-.31c-.87.36-.1,1.68-.38,2.41a2.43,2.43,0,0,1-.26.44c-3.31-.38-6-.78-7.88-1.11l-1.5-.27c-.78.57-1.58,1.15-2.37,1.68l-1,.69-1-.69c-.81-.52-1.59-1.11-2.37-1.68a15.09,15.09,0,0,1-1.5.27c-1.88.33-4.56.73-7.87,1.11a2.48,2.48,0,0,1-.26-.44c-.27-.73.49-2.05-.39-2.41l-.33.31a1.93,1.93,0,0,0-.08-2c-.43-.5-1.8-.57-.67-1.55a2,2,0,0,0-1.69,2,2,2,0,0,0-.07-.23c-.86.46-.5,1.86,0,2.47-1.42-.69-1.08-3.39-.25-4.4.31-.36,3.71-2.51,2.45-2.79a.54.54,0,0,0,.57-.11c-.38-.33-.79-.69-1.17-1a5,5,0,0,0-.87.75,20.87,20.87,0,0,0-1.27,1.91c-.1.15-.38.19-.42,0-.38-1.53.8-2.43,2.09-3-.51-.42-1-.86-1.54-1.3a9.47,9.47,0,0,0-2.23,5.72,8.08,8.08,0,0,0,2.49,6.1,5.24,5.24,0,0,0,.44.36l-3.39.25c-1.55-2-2.91-4.17-5.35-4.71-.6,1.43.51,2.35,1.44,3.33-6.21-4.46,0-9-1.48-14.33-.3.15-.85.1-1.23.27,1.38-.38.52-3.48.08-6-1.34-1.4-2.64-2.83-3.92-4.27-1.82.36-3.34,1.4-3.3,3.23-.39-.36-1-.36-1.34-.63-1.6,1.68-.93,4,.16,5.74-4.72-.86-2.07-9.51.27-11.4a6.06,6.06,0,0,1,1.14-.55c-1.25-1.51-2.47-3-3.66-4.59-3,4.69-4.36,10.81-3.21,15.63,2.07,8.78,8.74,14.75,16.45,18.48l-3.06.08a49.5,49.5,0,0,1-16.3-15.52c-5.89-9.22-6.2-20.32-3.74-30.69.14-.55.3-1.09.46-1.61-.62-1-1.22-2-1.81-3a44.72,44.72,0,0,0-.88,28.05c3.28,10.56,11.27,17.89,20.77,22.79-.91,0-1.85,0-2.83,0a36,36,0,0,1-10.11-5.78c-1.24-1.21-2.44-2.45-3.58-3.73a52.71,52.71,0,0,1-9.38-18.83,66.39,66.39,0,0,1-.81-35.43c-.57-1.17-1.1-2.35-1.64-3.54,0,0,0,0,0,0a.07.07,0,0,0,0-.06c-.57-1.28-1.13-2.56-1.67-3.83l-.38,1.8a52.3,52.3,0,0,0-.62,12.72l.74-2.49c0,.13-.05.25-.08.38-1.71,9.93-.41,20.36,2.17,30a61.56,61.56,0,0,0,2.18,6.64c-10.36-16-17.79-34.48-30.07-48.86a70.82,70.82,0,0,0-20.81-16.32,62.88,62.88,0,0,0-10-5.36,90.78,90.78,0,0,0-16.61-6.1c.27.78-.13,1.32-.07,2-3.3-.88-3.74-6.1-7.76-5.66a4.21,4.21,0,0,0,0,.65c-2.87-1.63-4.64,1.84-6.89-1.34,0,2,1.52,3,2.05,4.44-.46-.29-1.11-.4-1.57-.65.8,2.74,2.33,2.43,4.61,2.89-3.53,2.87-6.62-3.79-7.56-6.31-.69-1.91-3.88-11.19-7.33-6.6-1.48-1.82-8-.44-7.35-3.23-1.36,3.33-2.64,7,.41,9.89-.43,0-1,.4-1.79.13-1.09,3.18,3.82,3.29,5.13,4.94-4.28,0-7.58-4-9-7.92-.82-2.16.85-12.55-2.31-11.31,5.07-1.7,1-9.47,6.52-11.88a6.33,6.33,0,0,1,8.82,7.31c0-3-4.6-4.17-6.68-1.91-2.56,2.75-.38,7.08,3,7.56,7.77,1.17,7-10.85,2.7-14.35-7.79-6.33-17.79-.23-20.29,8.19-3.43,11.61,4.93,21.73,15.35,26,9.2,3.81,19.48,1.7,29.21,2.07A36.69,36.69,0,0,0,367.62,224a34.43,34.43,0,0,0-17.49,15.38c-.29.5-.52,1-.77,1.55-13-20.7-18.79-40.27-21-56.29a122.77,122.77,0,0,1-.73-26.46c1.25-.1,2.61-.52,3.74.13a2.2,2.2,0,0,1,.81,3c-1.15,1.57-2.17,0-3.41.54,2.44,3.35,5.72-1.21,5.68-4-.08-4-3.37-3.62-5.69-5.38,3.74-.9,8.13,3.25,9,6.68.46,1.65-.08,3.6.46,5.34.39,1.32,3.27,4.27,3,1.4.39,1.84,2.22,2.39,2.87,3.6a2.14,2.14,0,0,1-.09,2.28c5-1.66,9.11-9,3.37-12.3a16.59,16.59,0,0,0,1.66.06c-1.08-2-3.16-2.47-5-3.42a13.09,13.09,0,0,1,10.77,7,9.06,9.06,0,0,1,.69,6.75c-.59,1.55-4.58,4-2.39,5.3-2.38-.88-3.58,1.8-5.64,2s-4.06-1.68-3.5-3.77c-1.91,4.71,4.21,8.17,8.11,7.77a10.85,10.85,0,0,0,6.65-3.21,9.93,9.93,0,0,0,1.37,4.15,12.34,12.34,0,0,0,1.41,1.68c-2.47.5-5.71,2.14-6.29-1.15-.51,3.23,2.09,6.62,4.9,7.6s6.83-.71,8.88-2.87a19.5,19.5,0,0,1-6.37-.13s0-.08,0-.08a18.32,18.32,0,0,0,4.16-.61,13.83,13.83,0,0,0,5-.08,14.82,14.82,0,0,0-4.36,3.64c-3.8,4.95-2.58,12.32,2.89,15.29a7,7,0,0,0,6,.48c1.45-.61,2.75-1,4.15,0-.82-3.27-3.28-4.34-6.2-3-1.73.84-7.48.73-6.52-2.49.86.63,1.45,2.53,2.83,2.26l-.27-.73a2.92,2.92,0,0,0,3.74-.21c-1.51-.15-.89-1.84-2.08-2.6,1,.8,1-.5.67-1.13a5.18,5.18,0,0,0-2.12-1.61c-.92-.54-3.83-2.6-2.61-4,.71.4.72,1.89,1.29,2.58a5.24,5.24,0,0,0,2.89,1.76c-.52-.63-.67-1.57.46-1.61.06-.57.34-1.45.19-1.76.15.17.4.27.52.4,1.76-.86.15-4.19,1.52-5.59.14.82-.36,1.38-.12,2.26s1.52,1.76,1.13.48a2.24,2.24,0,0,0,1.87.59c-.84-.59.08-.88.25-1.51a4.93,4.93,0,0,0-.19-2c1.11.65.59-3.77.76-4.55,0-.21.13-.4.18-.61a12.66,12.66,0,0,0,2.7-13.39c-4.77-13.16-19.8-17.68-30.56-19.25-7.29-1.09-14.69-1-22.06-1.24.06-.29.11-.59.16-.88,3.58.13,7.18.13,10.83-.06,5.14-.27,10.34-.69,15.51-1l-1.5.46c3.38-.31,6.17.65,9.12,1.82,2.76,1.11,6.52,4.27,9.41,4.57.05-.25.11-.61.18-.84.85,1,1.43,2.14,2.67,2.81s2-.67,3,1a5.66,5.66,0,0,0-2.14-4.44c1.09.52.52,0,1.38-.19-1.17-1.84-2.28-2.72-4.54-2.77,4.42-.36,8.3,4.27,10.31,7.67,1.09,1.86,2,3.9,3.14,5.84.52.92,3.87,4.86,3.91,2.45.39,3.48,6.44,3.81,6.79,7.79a3.08,3.08,0,0,1-2.57,3.48c-1.74.21-2.55-1.66-4.11-1.68,3.54,7.86,17-4.17,10.23-11.25a5.47,5.47,0,0,0,2.16.71c-.51-1.66-2.13-3-3.29-4.4,3.86,2.49,5.61,7.81,5.81,12.23a18.64,18.64,0,0,1-.92,6.22c-.32,1.13-2.41,4.94-.57,4.9-1.5,1.17-2.68,6.45-5,2.91.63,3.69,7,4.53,9.65,2.85-.4.71-.08.82-.21,1.49,1.79.08,2.36-1.95,3.28-3.14-1.34,2.28-2.33,4.46-5.07,5.45s-5.07-.52-7.46.15c.15.4.34,1.3.39,1.32-3.29-2.7-11.69,3.29-12.06-4.23-.07,2.14.17,4.73,1.59,6.43,6.24,7.46,17.2,4.3,21.37-3.33,5.07-9.32,1.94-19.34-3.75-27.57-5.17-7.5-14.5-11.9-22.76-15.29-8.71-3.6-17.68-3.35-26.91-3.56a111.11,111.11,0,0,1,22.55.61c17.06,2.54,40.23,15.17,40.21,35,0,5-1.53,10.89-4.89,14.71a23,23,0,0,1-16.5,7.5c-6,.13-11.71-2.22-14.34-8s-1.6-11.37,3.3-15.4a.5.5,0,0,0-.44-.88c-7.52,2.3-9,10.91-6,17.47,3.37,7.58,10.49,11.31,18.67,11,8.4-.29,17.35-4.38,21.14-12.3A29.61,29.61,0,0,0,423,176.78c-4.48-18.33-25.68-29.75-43.21-31.65-16.62-1.82-33.85,2.12-50.68,2.35,0-.17.07-.38.09-.52.19-.86.36-1.55.47-2,.54-.12,1.29-.29,2.25-.48,12.63-2.56,61.32-9.43,106.62,22.42.06-1.17.09-2.37.18-3.56-53.4-36.47-110.55-21.18-110.7-21.14l-.83.21-.24.84c-.1.23-19.87,67.14,46.78,132.63.76.75,1.53,1.51,2.32,2.24,58.4,55.64,132.77,38,132.95,37.94l1-.23,1,.23c.16,0,74.53,17.7,132.93-37.94l2.31-2.24C712.85,210.37,693.09,143.45,693,143.22Zm-80,39.55c-1.13-1.63-1.95-3.71-1.24-5.68a.26.26,0,0,1,.48,0c.52,1.84.2,3.75.88,5.59C613.18,182.8,613.08,182.84,613,182.78Zm15.71-22c-2.44,1.72-4.67,3.14-6.31,5.76,0,0-.16,0-.13-.08,1.57-4.44,5.75-8.23,10.08-10.08a.28.28,0,0,1,.37.4A10.8,10.8,0,0,1,628.74,160.76ZM663.38,174c-1.27-1.26-3.07-3.16-2.48-5.13a.25.25,0,0,1,.46-.06,10.83,10.83,0,0,1,.8,2.37,11.28,11.28,0,0,0,1.3,2.79S663.41,174.06,663.38,174Zm18.39-17c-1.94,1.78-4.27,3.6-4.7,6.39a0,0,0,0,1-.05,0,5.77,5.77,0,0,1,4.43-7C681.77,156.36,682.08,156.71,681.77,157Zm5-6.56a82.94,82.94,0,0,0-13.25,3.21c-6.78,2.28-15.79,8.19-15.77,16.19a7.32,7.32,0,0,0-2.71-.94c-2.62-.42-6.75,1.63-6.75,5.26a4.12,4.12,0,0,0,2.91,4c1.61.31,3.21-1,3-2.22s-.49.63-1,1.21c-.9,1.07-3.09.44-4-.92a4.33,4.33,0,0,1,.18-4.38c1.52-2.39,4.69-2.76,6.93-1.76a6.38,6.38,0,0,1,1.45,1,12.77,12.77,0,0,0,.34,1.68,12.43,12.43,0,0,0,2.3,4.54c0,.15,0,.27,0,.42a9.25,9.25,0,0,1-3.56,6.08h-.06c-1.49.27-3.32,1.42-5.14,2.05-6.83.73-11.46-6.1-12-9.45-.93-5.72,1.64-10.33,5.27-14.08,5.21-5.32,11.52-7.08,16.91-8.59a93.83,93.83,0,0,1,15.38-3c4.68-.55,9.37-.9,14-1.26,0,.17.06.34.1.52A41.05,41.05,0,0,0,686.75,150.43Zm-26.88,65.22c1.24-1.72,3.31-3,4.94-4.32.17-.12.31.08.21.23-1.38,1.53-2.86,3.71-4.86,4.42C660,216.06,659.7,215.86,659.87,215.65Zm-.48,3.14a19.73,19.73,0,0,1,4.13-3.18,20.11,20.11,0,0,0,4.8-4.38,0,0,0,0,1,.06.06c-1.8,3.56-4.61,7.12-8.76,8C659.34,219.33,659.22,219,659.39,218.79ZM540.11,300.43a.12.12,0,0,1,.22.06,16.12,16.12,0,0,0,.33,1.8,4.07,4.07,0,0,1,.45,1.72.3.3,0,0,1-.45.23C539.53,303.51,539.46,301.48,540.11,300.43Zm-1.44-5.55a.09.09,0,0,1,.17.06,12,12,0,0,0-.49,5.72,17.36,17.36,0,0,1,.45,4.46.25.25,0,0,1-.47.08C536.64,302,537.16,298,538.67,294.88Zm-59.35,9.36a.29.29,0,0,1-.44-.23c-.07-.69.27-1.07.44-1.72a10.19,10.19,0,0,0,.33-1.8.13.13,0,0,1,.23-.06C480.52,301.48,480.46,303.51,479.32,304.24Zm2.33,1a.25.25,0,0,1-.47-.08,17.27,17.27,0,0,1,.45-4.46,12.07,12.07,0,0,0-.47-5.72c-.05-.11.09-.15.16-.06C482.83,298,483.35,302,481.65,305.21ZM355.19,211.33c1.62,1.32,3.72,2.6,5,4.32.15.21-.12.42-.31.33-2-.71-3.48-2.89-4.87-4.42A.16.16,0,0,1,355.19,211.33Zm5.18,7.92c-4.15-.84-6.93-4.4-8.77-8a.06.06,0,0,1,.08-.06,19.56,19.56,0,0,0,4.8,4.38,19.92,19.92,0,0,1,4.12,3.18C360.77,219,360.67,219.33,360.37,219.25Zm47.36-42.13a.25.25,0,0,1,.47,0c.71,2-.11,4-1.24,5.68-.06.06-.17,0-.13-.06C407.51,180.87,407.19,179,407.73,177.12Zm-20.12-20.76c4.31,1.84,8.49,5.63,10.08,10.08,0,.08-.09.13-.13.08-1.64-2.62-3.86-4-6.33-5.76a10.86,10.86,0,0,1-4-4A.29.29,0,0,1,387.61,156.36Zm-44.65,7s-.06,0-.06,0c-.41-2.79-2.77-4.61-4.69-6.39-.29-.27,0-.63.34-.61A5.77,5.77,0,0,1,343,163.38ZM356.6,174s-.07,0,0,0a11.67,11.67,0,0,0,1.28-2.79,10.77,10.77,0,0,1,.8-2.37.24.24,0,0,1,.45.06C359.68,170.86,357.9,172.76,356.6,174Zm-27.83-24.55c4.68.36,9.38.71,14,1.26a93.05,93.05,0,0,1,15.37,3c5.41,1.51,11.73,3.27,16.93,8.59,3.62,3.75,6.21,8.36,5.26,14.08-.54,3.35-5.18,10.18-12,9.45-1.83-.63-3.67-1.78-5.15-2.05h-.06a9.18,9.18,0,0,1-3.54-6.08c0-.15,0-.27,0-.42a12.14,12.14,0,0,0,2.31-4.54,11.06,11.06,0,0,0,.32-1.68,6.26,6.26,0,0,1,1.45-1,5.57,5.57,0,0,1,6.94,1.76,4.31,4.31,0,0,1,.17,4.38c-.86,1.36-3.06,2-3.94.92-.54-.59-.84-2.47-1-1.21s1.4,2.53,3,2.22a4.12,4.12,0,0,0,2.93-4c0-3.62-4.12-5.68-6.72-5.26a7.5,7.5,0,0,0-2.75.94c0-8-9-13.91-15.76-16.19a83.18,83.18,0,0,0-13.25-3.21,41.21,41.21,0,0,0-4.57-.44C328.72,149.8,328.73,149.63,328.77,149.47ZM469,309.58c-.29-.27-.62-.48-.89-.75s-.45-.5-.68-.75C467.89,308.58,468.42,309.08,469,309.58ZM358.3,253.79c-1.81-2.37-3.54-4.73-5.15-7.08.08-.46.17-.92.29-1.38,1.46-5.7,6.1-11,10.85-14.27,18.94-13,46.15,1,59.73,15.61,5.94,6.39,10.78,13.7,15.32,21.18-6.25-8.69-11.86-17.45-21-23.44-8.63-5.68-18.94-11.71-29.5-11.75-11.57-.06-23.19,3.46-28.8,14.43A16.47,16.47,0,0,0,358.3,253.79Zm51.88-8.59c-2.25.36-4.35-.4-6.44-1.24-3.27-1.24-6.06-2.43-9.64-2.26a.1.1,0,0,1,0-.19c5.27-1.38,11.64.13,16.22,3.06A.34.34,0,0,1,410.18,245.21Zm-32.88-6.33c-1.42,1.74-3.46,2.68-4.77,4.55-.05.08-.17,0-.14-.08.84-2.18,2.28-4.29,4.61-4.9A.27.27,0,0,1,377.3,238.88Zm9.07,35.78a5.3,5.3,0,0,0-2.07,1.17c-.48.52-.13,1.61-1.24,1.24a2.52,2.52,0,0,0,1.76,1.38c-1.47.44.35,1,1.19.75,1-.36,1.24-1.19,2.09-1.59-.31,1.68-2.76,2.45-3.87,3.69-1.64-1.4-3.27-2.85-4.89-4.38,6.14-2.77,10.58-8.69,8.4-15.75a.6.6,0,0,0-1.16.13A13.92,13.92,0,0,1,376.26,274l-.32-.31c-1.36-1.34-2.62-2.68-3.9-4A12.62,12.62,0,0,0,378,267c-7.4,4.55-7.19-7.37-11.91-8.78.06,0,1.07-.4,1.53-.48-.92-2.74-3.92-4.13-4.77-7.27s.63-5.61,1.95-8.38c-.58,1.66-2.13,3.52-.9,5.18.57-.54.87-.31,1.29-1.15.16,3.62,5.1,9.15,9,7.35-4.9.1-.63-4.46-.48-6.66,1.19,1.78,3.46-2.7,4.34-3.75a22.13,22.13,0,0,1,5.32-5c4.4-2.68,10.6-4.5,15.5-2.41-2-.23-4.42-.88-6.3-.27a6.36,6.36,0,0,0,2.05,1.59c-11.18-1.82-13.88,18.88-4.08,17.14-1-1.51-3.34-1-4.31-2.83a3.6,3.6,0,0,1,1.68-4.74c4-2.28,8.33,3.31,11.89,1.4-2.29,1.59,3.67,2.22,4.91,2.12,2.57-.21,5.11-.63,7.65-.82,4.54-.27,11.5.42,14,4.88-1.51-2.16-3.07-2.66-5.59-2.56.31,1-.5.73.69,1.47-1.78-.78-4.11-.13-5.62.84,2.29-.12,1.51,1.45,2.94,2.18s2.94.55,4.46.71c-.22.23-.51.5-.72.73,2.2,2.58,7.67,4.11,10.54,6,3,2.05,5.78,4.06,7.69,7.52l-.53-1.72c3.08,5.15,6.06,10.39,9.18,15.5a142.36,142.36,0,0,0,8.12,11.94,52.33,52.33,0,0,0,3.29,6.12c-7-9-13-18.85-20.71-27.25-8.59-9.26-22.69-20.7-38.38-16.63a14.56,14.56,0,0,0-11,11.23,8.11,8.11,0,0,1-.53.65C389.6,271.66,385,274,386.37,274.66Zm10.54,13.93a22.27,22.27,0,0,1-4.25-6,12.68,12.68,0,0,0,.19,5.51l-2.12-1.61c.11-.23.21-.4.3-.63a17.47,17.47,0,0,0,.63-6.6,15.76,15.76,0,0,0,3.2,4.88,21.62,21.62,0,0,0,2.13,4.38S397,288.63,396.91,288.59Zm5.44,5.87a7.12,7.12,0,0,0,3.84-1.76c-3.54,1.59-4.11-2.56-5.23-5.26a13.93,13.93,0,0,0,2.51.25,11.57,11.57,0,0,0,4.87-1.4,12.58,12.58,0,0,0,1.3,8.46c2.13,4,9.47,7.58,12.7,2.68-1.63,1.91-4.75,1.17-5.9-.88s.64-5-1.77-6.7c2.64,1.3,2.42-4.17,3.53-5.74,1.51-2.14,4.41-3.39,6.92-3.75a15.1,15.1,0,0,1,13.69,5.72c-2.06-1.13-3.88-2.83-6.5-2.54a17.42,17.42,0,0,0,1.15,1.57c-6.89-3.37-11.29,5.36-9.55,11.27a2.47,2.47,0,0,1,2.12-1.59c1.59-.19,3.31,1.21,5.31.4-2.9,1.63,1.81,2.47,3.35,2,2-.63,3.51-2.39,5.4-3.06,3.89-1.36,10.72.1,12.29,4.29-3.17-1.07-5-4.46-8.84-1.93-2.66,1.76-4.91,7.88-.09,8-.27-1.61-2.46-1.53-1.72-3.62a2.58,2.58,0,0,1,3.46-1.22c2.77,1.32,1.89,6.62,6.63,4.86-3.27,2.18,3.32,3.85,5.5,2.35,1,2.79,5.76,2.16,8,2.26l-2-1.89c-4.43-4.44-7.63-10.08-11.84-14.52a96.22,96.22,0,0,0-11.71-10.6c-6.64-5-18.14-9.76-25.79-4.5a9,9,0,0,0-.87-3.21c-1.31-2.79-6-5.38-9.46-3a4.75,4.75,0,0,0-1.91,5.45c.71,1.72,3.06,2.39,4.07,1.45s-.92-.11-1.83-.21c-1.59-.17-2.46-2.68-1.7-4.38a5,5,0,0,1,4.3-2.7c3.27-.1,5.71,2.7,6.22,5.49a9.13,9.13,0,0,1,0,2,12.48,12.48,0,0,0-1.42,1.45,13.92,13.92,0,0,0-2.81,5.17,2.47,2.47,0,0,0-.39.25,10.71,10.71,0,0,1-8.17.54l0,0c-1.24-1.26-3.5-2.26-5.29-3.56-5.21-6.06-1.69-15,1.12-17.72,4.92-4.67,11-5.15,17-4.15,8.44,1.49,14.29,6.39,19.25,10.54A111.7,111.7,0,0,1,445,283.75c5.66,6.52,10.83,13.35,16.35,19.95a32.1,32.1,0,0,0,9.61,9.78c1,.65,2.33,1.34,3.78,2.05C454.65,314.82,428.13,310.19,402.35,294.46Zm11.32-8.65c.38-2.05,1.06-5,3.3-5.76a.3.3,0,0,1,.35.42,12.51,12.51,0,0,1-1.74,2.33,12.73,12.73,0,0,0-1.82,3.06S413.66,285.85,413.67,285.81Zm28.67,5.76c.26.27.07.82-.35.71-3-.69-6.24-1.74-9.18-.33,0,0-.08,0-.05-.06C435.23,289.22,439.73,288.78,442.34,291.57Zm14.07,12.38a.31.31,0,0,1-.48.31c-.78-.61-1.35-1.34-2.12-2a9.81,9.81,0,0,0-2.55-1.57c-.06,0,0-.17.06-.15C453.27,301,455.61,302,456.41,303.95Zm39.11,10.29a2.78,2.78,0,0,1-.67-2.51c0-.08.17-.08.17,0a5.26,5.26,0,0,0,.74,2.34C495.83,314.21,495.62,314.34,495.52,314.23Zm28.93,0c-.09.1-.3,0-.21-.15a5.26,5.26,0,0,0,.72-2.34c0-.11.16-.11.16,0A2.73,2.73,0,0,1,524.45,314.23Zm28.16-6.16c-.23.25-.44.5-.68.75s-.61.48-.89.75Zm67.31-22.17a10.66,10.66,0,0,1-8.15-.54c-.15-.08-.26-.19-.38-.25a14.48,14.48,0,0,0-2.84-5.17,12.27,12.27,0,0,0-1.41-1.45,8.07,8.07,0,0,1,0-2c.5-2.79,3-5.59,6.22-5.49a5,5,0,0,1,4.3,2.7c.75,1.7-.08,4.21-1.68,4.38-.92.1-2.89-.82-1.82.21s3.33.27,4-1.45a4.78,4.78,0,0,0-1.91-5.45c-3.46-2.35-8.15.25-9.46,3a8.35,8.35,0,0,0-.87,3.21c-7.65-5.26-19.15-.46-25.79,4.5a97.08,97.08,0,0,0-11.71,10.6c-4.22,4.44-7.42,10.08-11.84,14.52l-2,1.89c2.29-.11,7,.52,8-2.26,2.2,1.51,8.8-.17,5.51-2.35,4.76,1.76,3.86-3.54,6.64-4.86a2.58,2.58,0,0,1,3.46,1.22c.74,2.09-1.47,2-1.72,3.62,4.8-.15,2.56-6.26-.08-8-3.85-2.54-5.68.86-8.86,1.93,1.58-4.19,8.4-5.66,12.28-4.29,1.91.67,3.42,2.43,5.43,3.06,1.53.48,6.24-.36,3.33-2,2,.82,3.73-.59,5.32-.4a2.47,2.47,0,0,1,2.12,1.59c1.74-5.91-2.66-14.64-9.55-11.27a17.41,17.41,0,0,0,1.15-1.57c-2.64-.29-4.43,1.4-6.5,2.54a15.1,15.1,0,0,1,13.69-5.72c2.51.36,5.42,1.61,6.92,3.75,1.1,1.57.87,7,3.54,5.74-2.43,1.72-.64,4.61-1.79,6.7s-4.25,2.79-5.89.88c3.23,4.9,10.56,1.3,12.72-2.68a12.55,12.55,0,0,0,1.27-8.46,11.69,11.69,0,0,0,4.88,1.4,13.69,13.69,0,0,0,2.5-.25c-1.12,2.7-1.68,6.85-5.2,5.26a7,7,0,0,0,3.83,1.76c-25.8,15.73-52.31,20.36-72.38,21.07,1.46-.71,2.74-1.4,3.79-2.05a32.16,32.16,0,0,0,9.6-9.78c5.52-6.6,10.73-13.43,16.36-19.95A111.45,111.45,0,0,1,587.91,271c5-4.15,10.81-9,19.25-10.54,6-1,12.07-.52,17,4.15,2.81,2.75,6.33,11.67,1.11,17.72-1.78,1.3-4,2.3-5.28,3.56Zm-13.61-.1s-.05.06-.07,0a12.86,12.86,0,0,0-1.83-3.06,14,14,0,0,1-1.75-2.33A.31.31,0,0,1,603,280C605.26,280.8,605.94,283.75,606.31,285.81Zm-19.09,6.08s0,.1-.06.06c-2.91-1.4-6.2-.36-9.16.33a.41.41,0,0,1-.33-.71C580.26,288.78,584.76,289.22,587.22,291.88Zm-18.54,8.69c.08,0,.13.13,0,.15a9.66,9.66,0,0,0-2.54,1.57c-.75.63-1.32,1.36-2.12,2-.23.15-.58,0-.48-.31C564.39,302,566.71,301,568.67,300.58Zm58.46-12.44a12.38,12.38,0,0,0,.2-5.51,22.1,22.1,0,0,1-4.26,6s-.1,0-.07,0a21.77,21.77,0,0,0,2.14-4.38,15.19,15.19,0,0,0,3.18-4.88,18.32,18.32,0,0,0,.65,6.6c.08.23.19.4.28.63C628.55,287.06,627.84,287.61,627.13,288.13Zm30-37.63c-.86,3.14-3.85,4.53-4.76,7.27.44.09,1.46.48,1.53.48-4.74,1.4-4.54,13.32-11.93,8.78a12.7,12.7,0,0,0,5.94,2.64c-1.27,1.32-2.56,2.66-3.87,4-.13.1-.23.21-.34.31a13.93,13.93,0,0,1-10.34-12.7.59.59,0,0,0-1.15-.12c-2.16,7.06,2.26,13,8.4,15.75-1.62,1.53-3.25,3-4.9,4.38-1.07-1.24-3.52-2-3.87-3.69.87.4,1.11,1.24,2.11,1.59s2.64-.31,1.19-.75a2.53,2.53,0,0,0,1.76-1.38c-1.1.38-.75-.71-1.25-1.24a5.06,5.06,0,0,0-2.06-1.17c1.32-.63-3.25-3-3.88-3.71-.19-.21-.36-.42-.53-.65a14.54,14.54,0,0,0-11-11.23c-15.69-4.06-29.79,7.37-38.38,16.63-7.72,8.4-13.68,18.29-20.7,27.25a50.47,50.47,0,0,0,3.27-6.12q4.31-5.69,8.14-11.94c3.11-5.11,6.09-10.35,9.19-15.5l-.56,1.72c1.92-3.46,4.65-5.47,7.7-7.52,2.87-1.93,8.34-3.46,10.52-6-.19-.23-.48-.5-.71-.73,1.53-.17,3,0,4.46-.71s.66-2.3,3-2.18c-1.51-1-3.84-1.61-5.63-.84,1.21-.73.39-.48.71-1.47-2.52-.1-4.1.4-5.62,2.56,2.55-4.46,9.5-5.15,14-4.88,2.53.19,5.09.61,7.68.82,1.24.11,7.18-.52,4.91-2.12,3.54,1.91,7.86-3.69,11.88-1.4a3.6,3.6,0,0,1,1.68,4.74c-1,1.8-3.27,1.32-4.32,2.83,9.82,1.74,7.11-19-4.05-17.14a6.59,6.59,0,0,0,2-1.59c-1.87-.61-4.28,0-6.31.27,4.9-2.09,11.1-.27,15.5,2.41a22,22,0,0,1,5.32,5c.88,1,3.16,5.53,4.34,3.75.16,2.2,4.42,6.77-.49,6.66,3.93,1.8,8.89-3.73,9-7.35.42.84.71.61,1.3,1.15,1.22-1.66-.35-3.52-.9-5.18C656.54,244.89,658,247.28,657.17,250.51Zm-47.48-5.93c4.58-2.93,10.95-4.44,16.24-3.06.07,0,0,.19,0,.19-3.58-.17-6.38,1-9.66,2.26-2.05.84-4.15,1.59-6.42,1.24A.34.34,0,0,1,609.68,244.58Zm33.3-6.14c2.35.61,3.78,2.72,4.6,4.9,0,.08-.07.17-.12.08-1.31-1.87-3.34-2.81-4.77-4.55A.27.27,0,0,1,643,238.44Zm18.71,15.36a16.92,16.92,0,0,0-1.74-6.7c-5.61-11-17.22-14.5-28.82-14.43-10.55,0-20.86,6.08-29.51,11.75-9.13,6-14.73,14.75-21,23.44,4.54-7.48,9.37-14.79,15.32-21.18,13.58-14.64,40.79-28.6,59.73-15.61,4.76,3.27,9.41,8.57,10.87,14.27.1.46.19.92.26,1.38C665.21,249.06,663.51,251.41,661.69,253.79Z" style="fill:#fff"/><path d="M463,285.49a31.66,31.66,0,0,0,2.86,10.58c1,1.87,1.86,3.81,3,5.57l.1,0c-.06-.15-.16-.27-.19-.38a34,34,0,0,1-1.19-3.37,15.31,15.31,0,0,1-.94-3.37c-.21-1.38.25-2.72-.21-4.11a3.29,3.29,0,0,1-.66.08c.91-.79,1-1.51.81-2.79-.15-.9-1-2.24.1-2.68-1.49-.17-1.42,1.28-1.78,2.33-.67-2,1.09-4.73,2.85-5.8.54-.33,3.54-1.57,3.91-2.64-1.42-1.91-2.8-3.86-4.12-5.82a3.13,3.13,0,0,0-.52.82c.09-.33,0-.25-.16-.69-1.79.86-2.35,3.39-2.85,5.26-.23-2,1-4.82,2.38-7.16-.3-.44-.59-.9-.88-1.36A28.74,28.74,0,0,0,463,285.49Z" style="fill:#fff"/><path d="M410.47,215.06c-4.85-2.91-11.32,0-15,3.77-.27.27-.49.52-.81.82,2.17-1.26,4.68,1.13,6.09,2.45a19.14,19.14,0,0,0,6.89,4.52c2.37.84,4.4,1.65,6.57,2.66a41.86,41.86,0,0,1-5.22-5.13s0-.08.07-.06a39.49,39.49,0,0,0,5,3.69c-2.43-2.93-4.17-6.43-7.42-8.63,0,0,0-.1.06-.06,3.69,1.72,5.89,5,8.91,7.58.4.29.76.63,1.16.94-.7-1.86-.84-4.23-1.28-5.76A11.07,11.07,0,0,0,410.47,215.06Z" style="fill:#fff"/><path d="M443.38,233.33c-5.22-7.65-15.85-8.42-24.13-10,4.54,1.84,6.37,7.31,7.8,11.69a45.15,45.15,0,0,0,8.08,15,93.54,93.54,0,0,1,9,14.22c.27.57.6,1.17.94,1.8-1.78-5.68-2.45-11.67-5.19-17.05,0,0,.05-.08.07,0a43.22,43.22,0,0,1,4,8c-1.79-7.84-3.54-16.34-9.08-22.42,0,0,0-.06,0,0,6.07,6.14,8.57,13.62,11,21.75.77,2.64,1.63,5.28,2.5,7.9-.63-5.45-1.47-10.75-1.84-16.24C446.32,243.34,446.07,237.31,443.38,233.33Z" style="fill:#fff"/><path d="M431.81,191.66c2.28.48,2.58,3.16,3.42,4.88,1,2.09,2.86,3.25,4.55,4.67a8.49,8.49,0,0,1,.61.61c-.55-3.85-1-7.71-1.32-11.63A15,15,0,0,0,431.81,191.66Z" style="fill:#fff"/><path d="M426.36,269.24a23.38,23.38,0,0,0-7.52-4.15c-2.67-.82-5.11-.44-7.87-.13-1.66.19-4.3.25-5.62,1.11,5.84,1.4,9.57,7,15.78,7.63a31.88,31.88,0,0,1,7.2,1.53c-3.87-2.45-7.77-5.09-12.29-5.93,0,0,0-.1,0-.1,4.7.1,8.67,2.22,12.76,4.23-2.22-1.7-4.4-3.41-6.71-4.94,0,0,0-.06,0,0,3.41,2.09,6.83,4.21,10.21,6.41l1.6,1a4.22,4.22,0,0,1,.39.17L433,274.62C430.6,273.42,428.54,270.83,426.36,269.24Z" style="fill:#fff"/><path d="M374.24,253.48a.06.06,0,0,0,0,0h.06C374.41,253.42,374.41,253.42,374.24,253.48Z" style="fill:#fff"/><path d="M355.34,155.39c3.21,1.34,6.37,2.74,9.53,4.17,0,0,0,.06,0,0-2.21-.9-4.49-1.63-6.78-2.37,3.42,1.91,6.85,3.73,9.21,7,0,0,0,.08-.05,0-2.81-2.79-6.6-4.29-10.22-5.84a27.23,27.23,0,0,1,4.61,4.36c3.41,4.15,9.26,4.06,13.07,7.54,0-1.36-1.26-3.27-1.92-4.55-1.1-2.12-2-4-3.92-5.57a20.37,20.37,0,0,0-6.61-3.33c-2.23-.78-5-1-7-2.08l-1.6-.29.28.19C354.36,155,354.85,155.21,355.34,155.39Z" style="fill:#fff"/><path d="M398.82,186.44v0c0-.15,0-.15,0,0Z" style="fill:#fff"/><path d="M511,34.24l-1-.69-1,.69c-44.19,30.08-70.57,82.58-70.57,140.42S464.8,285,509,315.07l1,.69,1-.69c44.19-30.08,70.57-82.58,70.57-140.4S555.18,64.33,511,34.24Zm2.51,54.28a15.5,15.5,0,0,0,1.71-1,8.43,8.43,0,0,1,1.85.52c2.5,1.19,4.51,4.19,3.57,7.25A4.79,4.79,0,0,1,517,98.66c-1.78.27-3.92-1.17-3.64-2.7.08-.88,1.51-2.49.28-1.76s-1.13,3.06.28,4.19a4.63,4.63,0,0,0,5.56-.42c3.1-2.64,1.87-7.71-.41-9.62a7.82,7.82,0,0,0-2.79-1.63c6.88-5.83,5.35-17.85,2.39-25.33a96.42,96.42,0,0,0-6.93-13.68,83,83,0,0,0-5.28-7.31l.61-.42c3.82,5.36,7.73,10.64,11.41,16.13a111,111,0,0,1,8.64,15.33c2.64,5.7,5.72,12.44,5,20.74-.57,5.84-2.58,11.44-8.19,14.81-3.29,1.95-12.53,3-16.88-3.42-.78-2-1.13-4.42-2-5.89,0,0,0,0,0,0a10.58,10.58,0,0,1,2.62-7.5c.11-.1.23-.19.33-.29A14.14,14.14,0,0,0,513.5,88.52Zm-5-3.67a13.42,13.42,0,0,0,3.34-.94,11.37,11.37,0,0,1,2.59-1,.3.3,0,0,1,.31.44c-1.28,1.93-4.22,1.8-6.22,1.61C508.51,84.92,508.53,84.86,508.55,84.86Zm-.81-19.36c-.05,0-.07,0,0-.06,2.05-2.37,1.9-5.74,2-8.69,0-.42.58-.44.75-.15C512.42,59.76,510.87,63.87,507.74,65.5ZM504.3,45.89a.07.07,0,0,1-.13,0,9.07,9.07,0,0,0-.82-2.81,1.5,1.5,0,0,0-.1-.21l.63-.5A8.93,8.93,0,0,1,504.3,45.89Zm-4.53-.25.46-.38c-1.56,3.23,2.87,3.9,3.37,6.6a2.49,2.49,0,0,1-2,2.93c-2.16.17-1.53-1.89-2.93-2.51-1.13,4.53,5.2,4,7.5,1.95,3.35-3,.68-5.53.45-8.78,3.53,2.54,3.17,9.3.89,12.59-1.09,1.61-3.14,2.6-4.25,4.29-.83,1.32-1.24,5.95,1,3.64-1.3,1.68-.41,3.65-1,5.09a2.46,2.46,0,0,1-2,1.57c5.08,3.12,14.38,1.21,13-6.08.06.21.84,1,1.17,1.47,1-2.37-.19-4.48-.71-6.75a14.81,14.81,0,0,1,1.88,14.31c-1,2.26-2.92,4.65-5.3,5.53-1.74.63-6.82-1-6.29,1.82-1-2.7-4.13-1.74-5.78-3.33s-1.52-4.73.65-5.78c-5.42,1.78-3.92,9.57-.71,12.59a12.16,12.16,0,0,0,7.58,3.37A11.17,11.17,0,0,0,504.21,94a12.89,12.89,0,0,0-.42,2.43c-1.46-1.13-3.56-2.22-4.19-3.62L499,91.56c-1.72-9.8-13.26-12.88-21.6-8.88-12,5.82-14.14,20.24-9.89,32,3.76,10.43,13.2,17.28,20.15,25.58a40.12,40.12,0,0,0-9.43-6.85,38.07,38.07,0,0,0-25.6-2.85,23.26,23.26,0,0,0-5.78,2.05C455.15,98,473.56,67.41,499.77,45.64ZM476.85,118a21.56,21.56,0,0,1,.48,5.74c0,.27-.43.44-.54.17-2.43-4-1.57-9,0-13.13,0,0,.08,0,.06,0A22.81,22.81,0,0,0,476.85,118Zm2.2-4.25a.17.17,0,0,1,.34,0c.15,2.3.65,5,.17,7.27-.05.27-.4.21-.5,0C478.15,118.82,478.82,116,479.05,113.73Zm-34,27.57a27.27,27.27,0,0,1,5.2-3.69c5.72-3,13.54-3.18,19.77-1.7,24.75,5.82,33.61,38.48,31.72,60.52-.77,9.57-3.12,18.9-5.87,28.13,2.45-11.52,5.39-22.58,3.5-34.46-1.8-11.31-4.52-24.24-12.35-32.93-8.57-9.51-20.14-16.4-33.28-12.8a18.91,18.91,0,0,0-10.31,7.17C443.88,148.08,444.42,144.67,445.05,141.29Zm28.28,11.08c-2.48.15-4.78-.82-7.28-.52-.09,0-.09-.15,0-.17,2.39-.94,5.22-1.36,7.45.1A.31.31,0,0,1,473.33,152.38Zm-29.68,46.78a13.1,13.1,0,0,0,1.4-.52,20,20,0,0,0,5.9-4.4,16.36,16.36,0,0,0-1.58,6.24,24,24,0,0,0-2,5c0,.06-.11,0-.11,0a25.54,25.54,0,0,1,1.73-8,14.07,14.07,0,0,0-4.85,5C443.94,201.38,443.79,200.27,443.65,199.16ZM482,284.61c.13.67.29,1.42.48,2.22a164.85,164.85,0,0,1-36.24-72.72,7.87,7.87,0,0,0,4.51,2c-4-1.7-.93-5.28.43-8.19a13.22,13.22,0,0,0,1.68,2.24,12.29,12.29,0,0,0,4.76,3,13.76,13.76,0,0,0-6,7.35c-1.67,4.74.83,13.43,7.24,12.42-2.75.08-4.48-3-3.65-5.51s4.54-3.19,4.15-6.43c.92,3.12,5.25-1.11,7.31-1.4,2.91-.36,6.09,1.11,8.24,2.89a16.89,16.89,0,0,1,5.56,15.5c-.65-2.56-.59-5.3-2.83-7.23-.06.65-.44,1.87-.39,2.1-2.38-8.13-12.79-5.24-16.33.59a2.69,2.69,0,0,1,2.85.55c1.32,1.15,1.49,3.62,3.64,4.65-3.49-1.17-.69,3.33.84,4.23,2,1.17,4.61,1.09,6.54,2.14,4,2.16,7.92,8.84,5.65,13.26-1.46-3.41-.05-7.42-5-8.67-3.39-.9-10.1,1.86-6.62,5.89,1.13-1.38-.58-3.12,1.67-4.08a2.86,2.86,0,0,1,3.59,1.88c1,3.29-4,6.49,1,9.09-4.23-1.07-.69,5.57,2.16,6.24-1.49,2.93,2.54,6.29,4.13,8.3l.05-3.08c.34-6.93,2.57-13.74,3.09-20.51a112.07,112.07,0,0,0-.07-17.49c-.87-9.13-5.56-22.12-15.53-24.47a10,10,0,0,0,2-3.12c1.28-3.14,0-8.9-4.57-10a5.31,5.31,0,0,0-5.89,2.47c-.86,1.86.36,4.29,1.9,4.4s-.66-.82-1.25-1.66c-1-1.4.4-4,2.35-4.65a5.56,5.56,0,0,1,5.41,1.53c2.53,2.62,2.06,6.68.13,9.15a8.51,8.51,0,0,1-1.6,1.53,19.56,19.56,0,0,0-2.23-.08,16,16,0,0,0-6.34,1.53l-.49-.13a11.86,11.86,0,0,1-6.56-6.24.08.08,0,0,0,0-.06c.1-1.93-.77-4.55-1-7,1.08-8.76,11-12.53,15.33-12.28,7.46.54,12.4,5.15,16,10.81,5.1,8,5.44,16.47,5.71,23.63a125.47,125.47,0,0,1-.8,20c-1.11,9.36-2.81,18.58-4.07,27.9A35.53,35.53,0,0,0,482,284.61Zm-20-67.5c1.95-1.24,4.88-2.89,7.16-1.57a.33.33,0,0,1-.08.59,13.52,13.52,0,0,1-3.2.29,15.28,15.28,0,0,0-3.84.78A.05.05,0,0,1,462,217.11Zm16.63,27.78a.44.44,0,0,1-.82.23c-1.67-2.91-3.27-6.41-6.58-7.75-.06,0-.06-.1,0-.08C475.28,237.33,479,240.68,478.65,244.89ZM477.8,259c0-.08.13-.17.19-.08,1.11,1.95,2,4.57,1,6.68-.12.29-.56.13-.58-.15-.12-1.09,0-2.14,0-3.21A12,12,0,0,0,477.8,259ZM490,231.27c1.19-13.93,0-34-15-43.83a16.25,16.25,0,0,0-17.49-.63c-.27,0-.54.06-.82.06-1,0-6.37-2-5.9-.42a6.16,6.16,0,0,0-2.5-.84c-.81,0-1.42,1.11-2-.1a2.85,2.85,0,0,0,.21,2.47c-1.48-.84-.56,1.07.29,1.57s1.88.13,2.85.52c-2,1.19-5.28-1.21-7,0-.23-2.79-.42-5.57-.53-8.38,7.1,3.81,16.26,3.48,20.72-4.15a.63.63,0,0,0-.94-.82c-6.39,4.82-13.69,4.48-19.9-.23,0-.61,0-1.19,0-1.8,0-2.16.06-4.29.15-6.41a12.23,12.23,0,0,0,1.13,1.74c1.74,2.31,4.92,3.37,7.56,3.92-9.25-2.68.69-11.4-1.72-16.3,0,.06,1.13.57,1.55.88,1.55-2.81.45-6.28,2.41-9.3s5-3.69,8.29-4.65c-1.76.75-4.45.88-4.89,3.1.9.08.88.5,1.92.19-2.86,2.85-3.71,11,.7,12.91-3.74-3.92,3.2-3.83,5.09-5.36-.57,2.28,4.78.82,6.3.75a25,25,0,0,1,8,.67c5.47,1.57,11.58,5.34,13.55,10.89-1.36-1.84-2.61-4.3-4.5-5.41a7.7,7.7,0,0,0,.23,2.89c-6.85-10.48-25.79,2.7-17.05,9.43.42-2-1.68-3.48-.89-5.59a4,4,0,0,1,5.1-2.18c4.88,1.59,3.48,9.28,7.71,10.79-3-.71.94,4.65,1.93,5.59,2.1,1.95,4.34,3.73,6.38,5.68,3.6,3.48,8.24,9.7,6.46,15.11.63-2.85-.13-4.48-2.09-6.49-.54,1-.94.17-.64,1.67-.72-2-3-3.46-4.9-4,1.83,1.78-.05,2.3.41,4s1.75,2.83,2.72,4.19c-.31,0-.79,0-1.1-.06-.49,3.71,2.36,9.34,2.89,13.12.62,4,1,7.79-.42,11.94l1-1.7c-1.93,6.37-4,12.67-5.82,19a158.38,158.38,0,0,0-3.71,15.52,53.63,53.63,0,0,0-2.51,7C485.29,255.93,488.92,243.78,490,231.27Zm3.25-47.62a.38.38,0,0,1-.63.36c-2-1.59-2.87-3.85-3.79-6.18-1.38-3.6-2.51-6.77-5.28-9.6-.06-.08,0-.21.08-.12C488.73,171.38,492.27,177.73,493.26,183.66Zm-9.43,94.19c0,1.07-.09,2.14-.09,3.21,0-.75-.05-1.49,0-2.22C483.74,278.49,483.79,278.16,483.83,277.85Zm17.6,25.24a3.77,3.77,0,0,0-.88,1.19c-.12-.08-.23-.19-.36-.29a3.71,3.71,0,0,1,1.09-1C501.38,302.86,501.51,303,501.43,303.09Zm14.79,3.75c-2,1.59-4.11,3.14-6.23,4.61q-4.07-2.83-7.95-5.91c.34-.29.58-.61.42-1-.17,0-.42,0-.52,0,.69-.29,1.49-.73,1.59-1.57s-.88-1.91.78-1.72a2.21,2.21,0,0,0-2.91.11l.15-.21c-1-.36-1.91.92-2,1.88-.49-1.72,2-3.44,3.4-3.5.57,0,4.85,1.13,4.1-.08.3.61.91.5,1.06.08.33,1,2.31.92,2.33,2.41,0,1-.38.77-1,1.15-.17.1-1.72.36-.48.79,1,.4,2.66-1.74,2.93-2.53.59-1.65-1.26-2.56-1.28-3.81a2.19,2.19,0,0,0,.36.17c.08-.84-.94-1-1.57-1.3,1.76-1,3.06,2.58,3.28,3.62a16.71,16.71,0,0,0,.33,2.28c.16.4.85,1.21,1.18,1.11-.15,1.59,1.91,1.32,2.12,2.68A1.73,1.73,0,0,1,516.22,306.84Zm-12.72-8.92c1.39-2.07,4.07-.61,5.7.34.12.06,0,.19-.08.19a9.41,9.41,0,0,0-2.83-.52,20.25,20.25,0,0,0-2.51.38C503.56,298.31,503.35,298.1,503.5,297.91Zm64.87-65c-.28-.29-.58-.59-.89-.88-1.32-1.19-3-2-4.21-3.37a.49.49,0,0,1,.36-.84c2.14,0,3.88,1.57,5.27,3.6Zm1.69-5.15c-6.54-4.25-15.58-6.16-22.42-6.47-15.86-.71-33.33,8.78-45,19L500,244.28c2.79-2.87,15.46-6,16-9.59a10.6,10.6,0,0,0-2.66-.61c6.26-3,12.7-3.71,19.44-3.21a29.4,29.4,0,0,1,8.87,2.39c1.52.63,7,3.41,6.94.27.56,1.82,2.86,3.94,4.77,3,.33,1.07.91,1.45.72,2.68,1.72-2.62,2.5-8.21-.66-9.93,2.68,1.67,1-2.93-.44-4.15-1.29-1-3.32-1.57-4.82-2.2,4.13.36,9.34,2.66,12.06,5.76.64.73,4.16,7.37,6.36,9.32-10.37,27.25-27.42,51-49.83,68.46a12.25,12.25,0,0,0,.62-2.55,7.24,7.24,0,0,0-2.68-6.31,10.5,10.5,0,0,0-13.56,0,8.68,8.68,0,0,0-2.84,4.75c-.86-.75-1.75-1.47-2.62-2.22.38-2,.55-4-.5-5.82-1.59.59-1.52,2.18-1.63,3.67-1-8.4,7.32-6.72,10.64-11.88-.38-.15-.75-.63-1.15-.82,2.57,1.66,7.37-11.31,8.72-4.84.54-3.54-5.11-9.26-8.28-6.24,0-.57-.4-1-.47-1.55-2.59,0-4,2.2-4.59,4.4-2.82-4.5,6.23-8.78,9.54-8.27.75.13,8.46,4.19,10.35,3.35,1.17,5,8.63,4.46,6.64,11.69-1.4,4.92-7.52,8.95-12.17,5.89,4.57,4.46,12-.1,14.62-4.5,3.33-5.61,1.78-12-1.76-17.08-7-9.95-24.43-5.15-30.57,3.79-5,7.29-5.49,15.92-3.67,24.13-.65-.63-1.33-1.24-2-1.89a54,54,0,0,1,1-22.39c3.12-11.67,12-20.2,22.29-25.89,11.82-6.54,28.79-6.68,36.87,5.84,2.77,4.25,1.95,9.66-1.06,13.53-3.17,4.13-7.84,3.62-10.65-.5-.38-.52-1.11.06-.89.57,1.52,4.17,4.87,6.16,9.15,4.55s6.73-6.41,7.38-10.62c.94-6.16-3.16-11.48-7.72-15.08-5.54-4.38-12.94-5.7-19.82-5.24-13.66.86-27.29,11.06-34.08,22.6-5.7,9.66-6.26,20.59-3.9,31.19-.86-.88-1.68-1.8-2.51-2.68a36.28,36.28,0,0,1-1.72-9q.06-3,.35-5.91a58.75,58.75,0,0,1,8.49-22c7.51-12.17,17.78-22.18,30.73-28.28,11.19-5.3,24-8.25,36.38-6.89a37.54,37.54,0,0,1,12.24,3.39C571.34,223.54,570.71,225.66,570.06,227.78Zm-25.12,2.51a23.54,23.54,0,0,0-9.72-2.64c-2.91,0-5.54.86-8.36,1.4-.44.08-.86-.42-.48-.75,5.53-4.84,13.48-1.93,18.68,1.84C545.13,230.18,545.06,230.35,544.94,230.29Zm-49.07,54.32c-.24,0-.28-.34-.16-.55.55-.57,1.09-.57,1.75-.88a13.12,13.12,0,0,0,1.71-1.09c.1-.08.27,0,.21.15C499,283.54,497.28,285,495.86,284.61Zm4.65-.73a13.9,13.9,0,0,0,4.3-4.69c.11-.1.21,0,.15.11-1.45,3.56-4.25,7-8.17,8-.26.08-.44-.25-.29-.46A18.38,18.38,0,0,1,500.52,283.88Zm13.79-18c2.93-.48,6.22,2.49,7.51,4.88.12.17-.12.27-.23.15a8.77,8.77,0,0,0-4.22-3,14.21,14.21,0,0,1-3.13-1.34C514,266.43,514,266,514.31,265.92ZM573,217.11c-7.83-3-16.69-3.29-25-2.41a78.06,78.06,0,0,0-25.56,7.52,72.09,72.09,0,0,1,11.82-5.45c8.63-3.06,17.72-5.87,27-5a59.55,59.55,0,0,1,12.36,2.76C573.41,215.37,573.19,216.25,573,217.11Zm-32.09-7.33c1.3-1.47,3-2.41,4.38-3.77a31,31,0,0,0,4-4.82c.05,0,.14,0,.1,0-1.4,4-4.06,7.58-8.17,9.07C540.88,210.43,540.67,210,540.88,209.78Zm29.06.82c-.26,0-.37-.4-.17-.52.63-.31,1.32-.48,2-.82s1.31-.69,2-1.07c0,0,.1,0,.05.06C572.66,209.15,571.39,210.43,569.93,210.6Zm-11.88-29.48c-8.4,4.92-13.24,13-20.15,19.55a103.87,103.87,0,0,0,6.31-8.9c3.62-5.68,6.59-13.64,4-21.47-2.13-6.26-11-14.29-20.64-9.59-4.63,2.28-10.35,11.21-2.87,16.89a8.17,8.17,0,0,0,6.66,1.17c1.6,1.09.63,3.6.29,5.17a13.34,13.34,0,0,0-.27,6.22c.77,3.25,2,6.1,2,9.32.05-.08.05-.13.09-.17,2.17-4.25,1.72-8.88,2.05-13.51a0,0,0,1,1,.08,0c.2,3,1,6.56.82,9.78,1.68-2.62,3.25-5.34,3.08-8.38-.23-3.52-4.4-8-8-8.48a5.61,5.61,0,0,0,1-.4,6.16,6.16,0,0,0,3.18-5.89,4,4,0,0,0-2.78-3.54c-1.59-.48-5.72,2.37-3.24,4.23.7.48,1.16-.29.49-.59-2.49-1.19,2-3.39,3.18-2.6,1.59,1.17,2,4.29.63,6.18-2.2,3-6.91,2.43-9.19.4a8.61,8.61,0,0,1-2-8.92c3.73-10.64,18.88-5.91,22.39-.29,4.82,7.69,1.78,16.7-1.91,22.69-6.57,10.56-14.44,18-21.43,25.64a274.67,274.67,0,0,1-22,21.87s0,.08.07.06c10.56-9.41,21.77-18,31.18-28.66,1.42-1.65,2.9-3.37,4.36-5.13a59.17,59.17,0,0,1,9.64-8.38,21.47,21.47,0,0,1,6.28-3.06c1.24-.33,6.12-.17,5.69-2.33.49,1.34,3.22-.15,4-1s.91-2.6,2.48-1.28c.43-2.22-3.6-4.27-5-2.45-.09-2.45-3.48,1.19-3.93,1.68.48-2.47,3.35-3.62,5.49-4,.94-.19,6.3.54,5.57-.73.54,1.63,2.7,1.19,2.43.08.84,1.24,3.16,3.46,3.77,2.87-.21,1.95,1.76,2.68,3.31,3.46.91.46,1.47.31,1.57,1.76a7.16,7.16,0,0,1-.52,2.35,6.3,6.3,0,0,1-8.82,3.31c1.24.57,3-.67,3.23-1.93.65-2.68-3.58-3.48-5-1.87-2,2.26-.18,5.15,2.32,6a8.11,8.11,0,0,0,7.79-2.09,7,7,0,0,0,1.3-1.74c-.33,3.12-.73,6.22-1.22,9.28a6,6,0,0,0-3.37.75c.89-3.92-10.44,1.11-12.43,2.16a76.67,76.67,0,0,1-14.06,5.28c2.37-1.15,10.14-3.46,8.71-6.79-.53.19-1.07.13-1.58.29,3.34-3.12,1.13-7.52.3-11-1.27,2.14-6.53,2.2-5.72,5.55-3-3.83-11.33,10.79-13.4,13a10.33,10.33,0,0,0,.22-2.3c-2.09.94-3.9,3.21-5.74,4.61a64.36,64.36,0,0,1-5.82,3.67,58.35,58.35,0,0,0-10.91,9l2.64-1.26-.38.23c-9.41,6-17,14.83-22.94,24.11-1.34,2.12-2.63,4.36-3.82,6.72,5.37-20.38,15-40.24,17.57-61a78.14,78.14,0,0,0-2.12-29.27,70.4,70.4,0,0,0-3.06-12.13c-1.95-6-4.27-12.65-7.4-18.16-.42.8-1.18.88-1.74,1.45-1.74-3.37,2.24-7.62-1.11-10.58a2.91,2.91,0,0,0-.57.46c-.82-3.58-5-2.43-4.07-6.64-1.61,1.51-1.29,3.44-2.09,5-.11-.59-.5-1.21-.61-1.8-1.68,2.72-.27,3.73,1,5.93-5-.75-1.8-8.23-.46-10.87,1-2,6.26-11.5-.07-10.94.39-2.56-5.6-6.89-2.82-8.4-3.75,1.34-7.69,3-7.79,7.69-.31-.36-1.06-.5-1.46-1.36-3.42,1.47.17,5.55-.22,7.88-3.15-3.52-2.33-9.22-.21-13.26,1.13-2.26,10.94-8.67,7.56-10.31,5.15,2.87,8.45-6.31,14.56-3.56,5.45,2.47,5.86,10,.61,12.7,2.39-2.22,0-6.83-3.44-6.89-4.14,0-6.09,5-4,8,3.31,5,8.7,2.07,11.66-2.22a2.23,2.23,0,0,0,.13.5c1.24,3.23,5.59,5.34,8.93,5.51a22.1,22.1,0,0,1-4.55-5.55s.06,0,.09,0a21.75,21.75,0,0,0,3.58,3.12,14.37,14.37,0,0,0,3.74,4.21,17.44,17.44,0,0,0-6.37-1.09c-7,.38-12.39,6.81-11,13.66a7.89,7.89,0,0,0,3.92,5.45c1.59.8,2.88,1.59,3,3.52,2.24-3.1,1.34-6-1.95-7.46-2-.88-6.09-5.91-2.62-7.41.08,1.17-1.12,3.08.13,4.06.08-.21.44-.78.44-.79a3.3,3.3,0,0,0,2.93,3.08c-1-1.4.9-2.14.65-3.71.1,1.49,1.23.57,1.49-.25a6,6,0,0,0-.15-3c-.21-1.19-.63-5.19,1.45-5.13.19.9-1.08,2-1.25,3a6.31,6.31,0,0,0,.58,3.75c.17-.92.9-1.74,1.76-.77.5-.38,1.42-.78,1.61-1.13,0,.23.07.52,0,.73,2,.86,3.73-2.93,5.92-2.76-.6.71-1.46.71-2,1.55s-.4,2.55.42,1.3a2.46,2.46,0,0,0,.84,2c-.09-1.15.84-.52,1.47-.9a4.62,4.62,0,0,0,1.64-1.63c.23,1.42,3.6-2.24,4.43-2.66l.64-.29a14.29,14.29,0,0,0,13.46-7.46c7.77-13.68.67-29.81-5.83-40.22-5.08-8.13-11.55-15.31-17.5-22.86l.86-.63a131.3,131.3,0,0,0,10.42,12.42c4,4.21,10.71,11.63,10.71,11.63,2.76,2.66,3.94,5.74,5.08,9.13,1.06,3.16,1.1,8.69,3,11.4.25-.12.59-.36.85-.48-.24,1.45-.79,2.79-.47,4.36s2,1.22,1.3,3.29c1.26-1.13,2.49-3.16,2.24-5,.36,1.3.31.46,1.16,1,.74-2.35.68-3.92-.93-5.91,3.52,3.52,2.39,10.22.94,14.41-.8,2.33-1.84,4.61-2.7,7-.42,1.11-1.33,6.87.73,5.13-2.66,2.89,1.46,8.32-1.7,11.5a3.5,3.5,0,0,1-4.86.36c-1.42-1.34-.45-3.39-1.55-4.73-4.17,8.74,15.92,11.46,17.09.57a5.66,5.66,0,0,0,1,2.33c1-1.63,1-4,1.35-6,.68,5.11-2.57,10.47-6.23,13.89a20.89,20.89,0,0,1-6,3.73c-1.19.57-6,1.55-4.58,3.12-2.12-.42-7.5,2.41-6.16-2.16-2.67,3.25,1.26,9.28,4.62,10.33-.91.21-.72.54-1.42.94,1.25,1.57,3.37.59,5,.46-2.88.54-5.5,1.3-8.35-.31-2.69-1.57-3.23-4.76-5.55-6.31-.22.4-.86,1.24-.86,1.3-.08-4.78-11.32-7.63-5.15-13.39-1.87,1.47-3.93,3.6-4.34,6.05-1.83,10.75,8.83,17.85,18.37,15.82,11.75-2.45,18.06-12.42,20.92-23.3,2.65-9.91-.37-21.1-3.47-30.65-3.29-10-10-17.49-16.49-25.5a125.91,125.91,0,0,1,15.8,19.59c10.24,16.49,16.37,45.52-.64,60-4.27,3.63-10.4,6.62-16.13,6.54a26,26,0,0,1-18.44-8.65c-4.5-5-6.62-11.67-3.68-18.08s8.59-9.68,15.63-8.42a.57.57,0,0,0,.41-1c-7.45-4.73-15.89.31-19.35,7.63-4,8.42-2,17.22,4.21,24,6.37,7,16.4,11.67,25.94,9.15a33.54,33.54,0,0,0,18.89-12.49c12.39-17.22,6.7-43.7-4.43-60.08C538.91,67,521.37,54.56,508.59,38.85c.46-.31.93-.67,1.39-1,42.62,29.54,68,80.57,68,136.8,0,3.65-.13,7.27-.34,10.87C575.33,177.33,564.32,177.48,558.05,181.12Zm-12.86-76.21c-.21-2.18-.4-4.32.5-6.35a.33.33,0,0,1,.63,0c1.59,5,1.38,11.38-1.28,16-.06.11-.19,0-.15-.06C546,111.19,545.54,108.28,545.19,104.91Zm-1.62,26.46c-1.16,2-3.51,2.85-5.74,3.06-.07,0-.14-.13-.05-.15,2.07-.75,3.48-2.43,5.46-3.31A.27.27,0,0,1,543.57,131.37Z" style="fill:#fff"/><path d="M536.82,256.41c-1.64-7.73-10.28-10.83-17.29-10A32.41,32.41,0,0,0,499,257.27a34.84,34.84,0,0,0-6.56,10.22,61.53,61.53,0,0,0-2.31,6.62s0,0,.08.06a4.28,4.28,0,0,1,.17-.48c.5-1.17,1.26-2.33,1.84-3.46a20.82,20.82,0,0,1,2.09-3.31c1-1.17,2.39-1.78,3.16-3.18-.12-.1-.38-.38-.51-.48,1.31.13,1.94-.34,2.86-1.47.67-.78,1.11-2.43,2.28-1.88-1-1.34-2.14-.21-3.23.27,1.13-2.05,4.7-2.62,6.85-2,.9.27,6.17,2.83,5.36.19,1.55,1.63,5.68-3.44,5.65-.57.41-3.06-1.6-7.16-5.29-5.89.36-.19.19-.23.45-.65-2-.84-4.54.65-6.41,1.59,2.36-2.7,8.92-3.88,12.12-4a13.26,13.26,0,0,1,5.92,1.4c1,.48,4.57,3.08,5.25,1.38-.68,1.91,1.51,2.72,2.83,2.7,1.5,0,2.55-.38,3.77,1.07,2.33,2.81-.75,9.11-3.16,7.21a1.49,1.49,0,0,0-2.49-1.61,2,2,0,0,0,.94,3.08c1.24.61,2.81-.1,3.92-.86C536.79,261.67,537.38,258.95,536.82,256.41Z" style="fill:#fff"/><path d="M535.32,244.49c.69,1.57,2.56,5.47,3,3.44a3.35,3.35,0,0,0,.51,2.93c.28-.27.54-.23.77-.63-.65,1.36-.05,2.41,0,3.73,2.17-1.4,1.25-4.65,1.53-6.45,1.12,1.88.74,3.29.05,5.24a5,5,0,0,0-.61,2.26c.13.84.67,1.95,1.27.73-1,1.63,1.29,2.18,1.6,3.35s-1,2.77-1.47,3.23c5.59-2.64,5.91-8.67,2.72-13.32a15.73,15.73,0,0,0-6.71-5.15c-2.58-1.13-5.09-.8-7.56-1.65l-.36.17a10,10,0,0,1,4.65,2.85C535.22,245,535.39,244.81,535.32,244.49Z" style="fill:#fff"/><path d="M508.72,175.48a45.12,45.12,0,0,1,.31-8.09c0-.06.08-.08.08,0a45.5,45.5,0,0,0,.7,6.81c.59-4.17,2.17-8.21,1.54-12.51,0,0,.06-.06.11,0,1.32,4.32.27,8.61.46,13a11.58,11.58,0,0,0,.09,1.61c1-1.91,2.81-3.77,3.75-5.28a12.39,12.39,0,0,0,1.8-9.22c-1.24-6.14-8.47-9.26-14.28-9.45l-1.24,0c2.64.82,2.58,4.67,2.5,6.81a21.16,21.16,0,0,0,1.46,9C507.08,170.67,507.9,173,508.72,175.48Z" style="fill:#fff"/><path d="M513.58,190.25A49.05,49.05,0,0,0,507.29,208a101,101,0,0,1-5,18l-.76,2.12c3.35-5.7,7.73-10.66,10.12-16.95,0,0,.08,0,.07,0a47.45,47.45,0,0,1-3.58,9.32c5.13-7.33,10.76-15.11,11.58-24.16,0-.06.07-.06.07,0-.5,9.53-4.75,17.18-9.59,25.18-1.61,2.58-3.13,5.26-4.62,7.94,4-4.57,7.7-9.22,11.93-13.62,3.54-3.71,8.32-8.4,9.55-13.53,2.38-10-4.92-19.29-9.79-27.23C519.17,180.22,516,185.81,513.58,190.25Z" style="fill:#fff"/><path d="M552.61,161.83c1.34,2.24-.66,4.46-1.45,6.45-.94,2.39-.52,4.76-.42,7.19a25.19,25.19,0,0,1-.64,6.47c1.94-3.18,3.7-6.43,5.52-9.68,0,0,.08,0,0,0-2.19,5.22-3.65,10.56-7,15.27-.12.17-.26.34-.39.5l.13-.06c1.82-2,3.6-4.21,5.6-6.16s4.35-3.9,5.83-6.41C563.49,169.31,557.93,164,552.61,161.83Z" style="fill:#fff"/><path d="M485.29,226.27c.06.13.11.27.17.4l.11-2.07c-.83-2.85-.21-6.43-.5-9.43a25.67,25.67,0,0,0-2.23-9.24c-1.35-2.81-3.45-4.51-5.77-6.54-1.38-1.21-3.41-3.33-5.11-3.75,3.23,5.78,1.38,13.05,5.55,18.58a35.09,35.09,0,0,1,4.09,7c-.87-5-1.63-10.14-4.3-14.48,0,0,0-.11.06,0,3.39,3.9,4.65,8.71,6,13.55-.22-3.08-.43-6.14-.94-9.15,0,0,.07-.06.09,0,.83,4.38,1.64,8.74,2.37,13.12C485,224.91,485.15,225.58,485.29,226.27Z" style="fill:#fff"/><path d="M459.09,160.76a.07.07,0,0,0,0,0s0,0,0,0C459.27,160.84,459.27,160.84,459.09,160.76Z" style="fill:#fff"/><path d="M527.4,92.78c1-2.51,1.95-4.69,1.89-7.44a22.78,22.78,0,0,0-1.95-8.09c-1-2.45-2.86-5-3.37-7.58l-.9-1.55a1.64,1.64,0,0,0,0,.38c.15.59.35,1.17.54,1.78,1.17,3.71,2.26,7.44,3.35,11.17,0,0-.05.06-.05,0-.82-2.55-1.87-5-2.89-7.52.87,4.32,1.78,8.57.66,13,0,0-.08,0-.07,0,.34-4.42-1.1-8.76-2.4-13a31.42,31.42,0,0,1-.4,7.1c-1,6,3.29,10.94,3.08,16.74C526.06,96.74,526.8,94.28,527.4,92.78Z" style="fill:#fff"/><path d="M528.76,130.11h0C528.89,130,528.89,130,528.76,130.11Z" style="fill:#fff"/><path d="M456.35,697.54c18,0,23.06,11.84,23.06,21.14,0,9.79-5.77,21.14-22.5,21.14H441.53V697.54Zm-11.53,39.55h11.9c10.17,0,19.16-6.51,19.16-18.41,0-10.85-7.87-18.41-19.34-18.41H444.82Z" style="fill:#fff"/><path d="M510.53,700.27H490.76v16.92H510v2.73H490.76v17.17H511v2.73H487.47V697.54h23.06Z" style="fill:#fff"/><path d="M537.69,703.24c-4.34-2.48-6.57-3.22-9.49-3.22-5.08,0-8.93,3.47-8.93,8.06,0,11.28,20.15,5.89,20.15,20.71,0,6.51-5.39,11.59-12.28,11.59a19.69,19.69,0,0,1-10.85-3.72v-3.84c4.71,3.41,7.38,4.53,10.66,4.53,5,0,8.93-3.66,8.93-8.43,0-12-20.15-6.76-20.15-20.71,0-6.26,5.46-11.22,12.15-11.22a20.11,20.11,0,0,1,9.8,2.67Z" style="fill:#fff"/><path d="M583.07,739.82h-3.41L573,725.19H552.32l-6.7,14.63h-3.41l19.53-42.59h1.8Zm-20.46-37.26-9.05,19.9h18.16Z" style="fill:#fff"/></svg>